<?xml version="1.0" standalone="no"?>
<!DOCTYPE svg PUBLIC "-//W3C//DTD SVG 1.1//EN" "http://www.w3.org/Graphics/SVG/1.1/DTD/svg11.dtd" >
<svg xmlns="http://www.w3.org/2000/svg">
<metadata>
This is a custom SVG webfont generated by Font Squirrel.
Copyright   : Copyright c 2010 by Toshi Omagari All rights reserved
Designer    : Toshi Omagari
Foundry     : Toshi Omagari
</metadata>
<defs>
<font id="TangerineRegular" horiz-adv-x="501" >
<font-face units-per-em="2048" ascent="1536" descent="-512" />
<missing-glyph horiz-adv-x="307" />
<glyph unicode=" "  horiz-adv-x="307" />
<glyph unicode="&#x09;" horiz-adv-x="307" />
<glyph unicode="&#xa0;" horiz-adv-x="307" />
<glyph unicode="!" horiz-adv-x="387" d="M113 45q0 12 9 26.5t22.5 29t31 23.5t35.5 9q20 0 20 -29q0 -16 -9 -34.5t-23.5 -34t-29.5 -25.5t-30 -10q-26 0 -26 45zM240 285q31 68 70.5 166t77.5 201.5t69.5 199.5t50.5 162q12 18 39.5 41.5t54.5 38t42 13.5t1 -32q-41 -80 -93 -193.5t-105.5 -228t-100.5 -218 t-74 -165.5q-16 -18 -27 -13t-5 28z" />
<glyph unicode="&#x22;" horiz-adv-x="438" d="M104 569l31 49q20 33 42 69t42.5 70t32.5 54q6 10 21.5 14t52.5 4q29 0 20 -20q-18 -20 -47 -54t-60.5 -71t-62.5 -73t-53 -58q-10 -4 -16.5 1t-2.5 15zM297 569l31 49q20 33 41.5 69t42 70t32.5 54q6 10 21.5 14t52.5 4q29 0 21 -20q-18 -20 -47 -54t-61 -71t-62.5 -73 t-53.5 -58q-10 -4 -16 1t-2 15z" />
<glyph unicode="#" horiz-adv-x="591" d="M29 227.5q2 8.5 11 18.5t20.5 18t21.5 10q20 2 40.5 3.5t43.5 3.5q16 39 31.5 77.5t31.5 77.5q-35 -4 -63.5 -7t-52.5 -7q-8 0 -5 8t11 18.5t19.5 18.5t21.5 10q23 4 45 5t47 3q14 29 26.5 54.5t26.5 48.5q8 14 22.5 30.5t28 27.5t22.5 12t7 -17q-25 -39 -46.5 -78 t-41.5 -76q39 0 78 1t76 1q14 27 27.5 50.5t27.5 44.5q8 14 24.5 32.5t32 30.5t24.5 14.5t7 -16.5q-27 -39 -50.5 -77t-45.5 -79q33 0 62.5 -1t55.5 -3q14 -4 -1 -22.5t-33 -24.5q-27 2 -55 2h-56q-23 -39 -42 -76.5t-36 -76.5q33 0 62.5 -1t58.5 -3q6 -2 5 -8.5t-7 -14.5 t-15.5 -15t-17.5 -9q-27 2 -53 2h-55q-25 -55 -46.5 -108.5t-41.5 -106.5q-8 -23 -21 -23q-12 0 -8 14q14 43 34.5 100.5t47.5 123.5h-79q-38 0 -75 -5q-45 -111 -73 -210q-8 -23 -21 -23q-8 0 -8 14q10 41 28.5 97.5t41.5 119.5q-33 -4 -62 -7t-53 -7q-8 2 -6 10.5z M201 283q39 2 77.5 3t75.5 1q33 76 72 155q-39 0 -78 -1t-76 -3q-20 -41 -37.5 -78.5t-33.5 -76.5z" />
<glyph unicode="$" horiz-adv-x="550" d="M20 84q0 12 7.5 29.5t19.5 38t28.5 40t33.5 31.5q8 4 14 -2t2 -16q-18 -16 -29.5 -43t-7.5 -49q12 -63 78 -80q31 78 60.5 147.5t60.5 141.5q-31 35 -56.5 68.5t-25.5 82.5q0 31 12 60.5t37 54t59.5 39t79.5 14.5q8 0 15.5 -1t13.5 -1q16 33 30.5 66.5t30.5 70.5 q10 14 23.5 11t9.5 -19q-31 -72 -61 -135q35 -10 55 -24.5t20 -28.5q0 -29 -10 -64t-24 -57q-6 -4 -14.5 -1t-6.5 13q8 16 10 38.5t-2 39.5q-10 33 -45 49q-27 -59 -51.5 -115.5t-48.5 -111.5q35 -37 66.5 -77t31.5 -104q0 -80 -64.5 -136t-174.5 -56h-15 q-10 -31 -22.5 -62.5t-26.5 -64.5q-10 -18 -23.5 -19.5t-11.5 15.5q14 35 27.5 68.5t26.5 64.5q-59 8 -95.5 32.5t-36.5 51.5zM195 29h6q86 0 129 36.5t43 90.5q0 47 -19.5 80.5t-46.5 62.5q-29 -68 -56 -134t-56 -136zM268 506q0 -35 14.5 -61.5t34.5 -51.5 q23 51 44.5 103.5t48.5 111.5h-17q-61 0 -93 -28.5t-32 -73.5z" />
<glyph unicode="%" horiz-adv-x="794" d="M41 362q0 49 19.5 98.5t51 89.5t73.5 65.5t87 25.5t71 -28.5t26 -80.5q0 -49 -19.5 -99t-51.5 -90t-74 -65.5t-87 -25.5t-70.5 29.5t-25.5 80.5zM66 -121q80 113 154.5 219.5t151.5 213t157.5 218t175.5 236.5q14 10 29.5 6t10.5 -20q-166 -215 -331.5 -443.5 t-307.5 -439.5q-16 -16 -30 -11t-10 21zM100 422q0 -53 17.5 -83t56.5 -30q57 0 96 50.5t39 113.5q0 53 -17.5 82t-55.5 29q-55 0 -95.5 -50.5t-40.5 -111.5zM428 111q0 49 19.5 98t51 89t72.5 65.5t86 25.5q47 0 72 -28.5t25 -79.5q0 -49 -19.5 -99.5t-51.5 -90.5 t-73 -65.5t-86 -25.5t-70.5 30t-25.5 81zM487 168q0 -53 16.5 -82t57.5 -29q55 0 94 50.5t39 113.5q0 53 -16 82t-57 29q-55 0 -94.5 -50.5t-39.5 -113.5z" />
<glyph unicode="&#x26;" horiz-adv-x="1038" d="M41 219q0 61 25.5 106.5t65.5 80t90 64.5t102 60q-16 88 -17 160q0 57 17.5 108.5t47 90.5t68.5 61.5t82 22.5q35 0 59.5 -33t24.5 -74q0 -59 -18.5 -107t-49 -86t-70.5 -70t-83 -58q23 -102 69 -196.5t115 -162.5q41 51 79 110.5t79 111t87 84t106 32.5q45 0 70.5 -31.5 t35.5 -74.5q4 -10 -5 -15.5t-17 5.5q-16 23 -44 37t-67 14q-49 0 -88 -26.5t-75 -68.5t-70.5 -93.5t-73.5 -100.5q55 -51 122.5 -80t147.5 -29q70 0 113 54q8 10 22.5 8t-2.5 -25q-33 -45 -80 -71.5t-114 -26.5q-78 0 -144.5 28.5t-120.5 80.5q-47 -47 -108.5 -78 t-140.5 -31q-106 0 -173 61.5t-67 157.5zM121 254q0 -92 59.5 -145.5t165.5 -53.5q49 0 90 18.5t76 51.5q-72 74 -117 175t-67 208q-41 -27 -78 -52.5t-65.5 -56t-46 -65.5t-17.5 -80zM360 752q0 -92 19 -187q70 47 119 107.5t49 156.5q0 39 -17.5 66t-52.5 27 q-55 0 -86 -48t-31 -122z" />
<glyph unicode="'" horiz-adv-x="245" d="M104 569l31 49q20 33 42 69t42.5 70t32.5 54q6 10 21.5 14t52.5 4q29 0 20 -20q-18 -20 -47 -54t-60.5 -71t-62.5 -73t-53 -58q-10 -4 -16.5 1t-2.5 15z" />
<glyph unicode="(" horiz-adv-x="512" d="M195.5 144.5q-5.5 103.5 4 218t38.5 229.5q55 233 162.5 415.5t244.5 297.5q14 8 24.5 4t0.5 -23q-41 -39 -89.5 -101.5t-84.5 -125.5q-53 -90 -97.5 -207t-75 -244t-48 -256t-17.5 -246q0 -33 2 -72.5t7 -79.5t13.5 -78t18.5 -66q2 -16 -10.5 -21.5t-22.5 6.5 q-29 66 -47 156t-23.5 193.5z" />
<glyph unicode=")" horiz-adv-x="565" d="M66 -190q41 41 88 102t86 127q53 90 97 205.5t74.5 242.5t48 256t17.5 246q0 33 -2 73t-7 80t-13.5 77.5t-18.5 66.5q-2 18 10.5 22.5t22.5 -8.5q29 -66 47.5 -155.5t23.5 -193t-5.5 -218.5t-36.5 -229q-55 -233 -163 -415.5t-247 -297.5q-12 -8 -22 -3.5t0 22.5z" />
<glyph unicode="*" horiz-adv-x="385" d="M87 696.5q1 8.5 7 17.5t16.5 14t18.5 1q12 -8 28.5 -15t32.5 -16q18 -8 35 -18q6 27 13 51q4 23 10 45.5t10 40.5q2 12 14.5 20.5t24.5 11.5t20.5 0t4.5 -11q-10 -23 -22.5 -50.5t-23.5 -50.5q-12 -29 -26 -55l57 20q25 10 51.5 18.5t49.5 18.5q10 4 14 -3t3 -18 t-5 -20.5t-12 -11.5q-23 -4 -49.5 -9t-51.5 -9q-29 -6 -57 -11q16 -20 35 -43q16 -18 31.5 -37.5t29.5 -31.5q8 -8 4 -18.5t-13 -16.5t-20.5 -7t-15.5 9q-10 16 -22.5 39.5t-22.5 44.5q-12 23 -25 47l-34 -51q-14 -23 -28.5 -44.5t-25.5 -35.5q-6 -10 -16 -10t-19.5 5 t-14.5 11t1 12q16 16 38 39t40 43q23 23 43 47q-20 4 -43 11q-18 4 -38.5 8t-37.5 8q-10 2 -9 10.5z" />
<glyph unicode="+" horiz-adv-x="616" d="M110.5 294.5q10.5 18.5 61.5 24.5h135q16 47 32.5 91.5t33.5 87.5q2 8 11 15t19.5 10t18.5 1t8 -10q-18 -53 -35.5 -100t-34.5 -95h97q49 0 94 -2q16 -4 2 -20t-39 -21h-170q-16 -47 -30.5 -90t-28.5 -84q-8 -27 -32 -33t-24 11q16 51 31.5 100t32.5 96q-47 -2 -91 -2 t-87 -2q-15 4 -4.5 22.5z" />
<glyph unicode="," horiz-adv-x="229" d="M0 -173q-2 7 4 15q45 29 73.5 72t28.5 90q0 43 -20 55q-6 6 1 18.5t19.5 25t25.5 22.5t22 10q10 -4 17 -25.5t7 -46.5q0 -63 -48 -131.5t-120 -111.5q-8 0 -10 7z" />
<glyph unicode="-" d="M80 283q-14 4 0 21.5t41 23.5q27 2 68.5 6t89 7t93.5 5t81 2q8 -2 6 -10t-9.5 -17.5t-19.5 -17.5t-27 -10q-37 0 -82 -1t-89 -3t-84.5 -3t-67.5 -3z" />
<glyph unicode="." horiz-adv-x="229" d="M61 45q0 12 8.5 26.5t22.5 29t30.5 23.5t35.5 9q20 0 20 -31q0 -16 -9 -33.5t-22.5 -33t-30 -25.5t-30.5 -10q-25 0 -25 45z" />
<glyph unicode="/" horiz-adv-x="430" d="M-49 -68q45 80 106.5 186.5t130 227.5t142 250t146.5 254t139 237l120 203q12 10 28.5 8t12.5 -18q-47 -76 -111.5 -185.5t-138 -235.5t-150.5 -260t-147.5 -259t-131 -233.5t-99.5 -182.5q-14 -16 -32.5 -13t-14.5 21z" />
<glyph unicode="0" horiz-adv-x="714" d="M113 213q0 66 27.5 141.5t78.5 139t121 105.5t156 42q92 0 140 -59.5t48 -151.5q0 -84 -33 -160.5t-86 -137t-121.5 -96.5t-140.5 -36q-92 0 -141 60.5t-49 152.5zM180 276q0 -96 43 -154.5t135 -58.5q49 0 96.5 23t83 63.5t57 97t21.5 124.5q0 96 -40.5 152.5 t-133.5 56.5q-59 0 -107 -25t-83 -67t-53.5 -97.5t-18.5 -114.5z" />
<glyph unicode="1" horiz-adv-x="387" d="M82 4q25 66 54.5 135.5t60 139t61.5 135t57 123.5q-47 -12 -90 -22.5t-78 -10.5q-8 2 -6 12t15 14q78 10 154.5 46t142.5 94q10 4 18 0t6 -15q-51 -68 -96 -148.5t-83 -163.5t-65.5 -165t-46.5 -153q-14 -18 -36.5 -28.5t-45.5 -10.5q-22 0 -22 18z" />
<glyph unicode="2" horiz-adv-x="567" d="M-2 13.5q0 13.5 10 23.5q88 59 172 107.5t149.5 96.5t104.5 102t39 126q0 53 -32.5 82t-88.5 29q-66 0 -109.5 -45.5t-58.5 -110.5q-6 -6 -14 0t-10 16q8 37 29.5 73t53 64.5t74.5 46t95 17.5q70 0 106.5 -42t36.5 -97q0 -61 -25.5 -110.5t-74.5 -94.5t-121 -91 t-164 -102q43 -14 100.5 -25t126.5 -11q80 0 109 51q8 8 15 1t3 -22q-29 -47 -69.5 -72.5t-102.5 -25.5q-57 0 -100 11.5t-77 21.5t-61.5 13t-54.5 -13q-18 -10 -29.5 -18.5t-21.5 -14.5q-10 0 -10 13.5z" />
<glyph unicode="3" horiz-adv-x="518" d="M-117 -193q4 6 12.5 8.5t12.5 -3.5q31 -94 168 -95q63 0 119.5 20.5t98.5 56.5t66.5 85t24.5 107q0 111 -46 165t-132 54q-49 0 -88 -27q-10 0 -14.5 9.5t1.5 19.5q94 39 159 67.5t105 57t57 60.5t17 77q0 53 -31.5 89t-88.5 36q-53 0 -88 -22.5t-58 -63.5q-6 -6 -16 0 t-6 16q25 47 78 82t139 35q76 0 115.5 -42t39.5 -91q0 -98 -69.5 -155.5t-206.5 -112.5q43 12 83 2.5t70.5 -35t48 -64.5t17.5 -82q0 -80 -39 -151.5t-102.5 -124.5t-147.5 -85t-172 -32q-66 0 -94.5 35.5t-32.5 103.5z" />
<glyph unicode="4" horiz-adv-x="743" d="M82 303q88 109 192.5 211t215 195.5t222 174.5t214.5 146q10 2 17 -3t3 -15q-63 -55 -108 -114.5t-86 -131.5q-53 -94 -102.5 -204.5t-92.5 -233.5q10 -2 21 -2h20q72 0 118 21.5t68 62.5q4 4 11.5 -1.5t3.5 -15.5q-37 -66 -92.5 -97.5t-153.5 -31.5h-18 q-16 -53 -33 -109.5t-33 -113.5q-8 -18 -34.5 -35.5t-49.5 -17.5q-20 0 -23 12q23 66 45.5 133.5t49.5 134.5q-70 6 -125.5 17.5t-96 18.5t-70.5 9t-46 -10q-4 -4 -8.5 -7t-8.5 -7q-8 -4 -16 0t-4 14zM184 375q59 -16 135 -28.5t162 -16.5q59 147 124 285.5t130 248.5 q-82 -55 -154.5 -112.5t-139 -118t-130.5 -124.5t-127 -134z" />
<glyph unicode="5" horiz-adv-x="512" d="M-143 -195q2 10 11 12.5t13 -3.5q23 -41 63 -58.5t113 -17.5q63 0 115.5 21.5t91.5 58.5t60.5 88t21.5 110q0 78 -39 140.5t-121 95.5q-47 16 -26 92q18 68 48 141.5t60 137.5q8 10 31 10q41 2 88 3t96 5q94 4 109 39q4 8 12 4t8 -14q-10 -35 -18 -54.5t-21.5 -31 t-35 -15.5t-54.5 -6q-16 0 -38.5 -1t-47 -3t-48 -3t-38.5 -1q-25 -2 -36 -8t-17 -19q-14 -31 -23.5 -56.5t-17.5 -53.5q-8 -35 0 -55.5t39 -36.5q82 -41 126 -107.5t44 -150.5q0 -74 -36 -143.5t-95 -123t-139 -85t-166 -31.5q-66 0 -97.5 33.5t-35.5 86.5z" />
<glyph unicode="6" horiz-adv-x="606" d="M102 221q0 76 26 165t70 178t106.5 172t137 147.5t157.5 102.5t171 38q55 0 89 -42t36 -103q-4 -8 -10 -9.5t-11 2.5q-25 41 -63.5 63.5t-103.5 22.5q-80 0 -151 -34.5t-131 -98t-109.5 -152.5t-88.5 -198q37 53 95.5 88t128.5 35q66 0 105.5 -54.5t39.5 -131.5 q0 -74 -32 -148t-83 -132t-113.5 -95t-123.5 -37q-72 0 -107 56t-35 165zM180 258q0 -109 33 -152t98 -43q33 0 69 19.5t65.5 57.5t48 94.5t18.5 132.5q0 72 -29.5 117.5t-95.5 45.5q-39 0 -76 -20.5t-66.5 -57t-47 -87t-17.5 -107.5z" />
<glyph unicode="7" horiz-adv-x="667" d="M-18 -311q55 80 107 144.5t105.5 122.5t107.5 115.5t112.5 124t121 147.5t130.5 185q-35 4 -65 8.5t-60.5 6.5t-67.5 3t-84 1q-55 0 -93 -7.5t-63.5 -27.5t-44 -55t-34.5 -90q-6 -10 -15.5 -3t-7.5 17q16 53 41 114.5t47 102.5q10 10 23.5 18.5t34 13.5t50 8t72.5 3 q70 0 135.5 -9t139.5 -24q29 -4 51 19q18 20 23 30q8 4 14 -3t2 -21q-98 -172 -189.5 -294t-174.5 -223.5t-158.5 -194.5t-141.5 -206q-14 -14 -48 -30.5t-54 -16.5q-8 0 -14 5.5t-2 15.5z" />
<glyph unicode="8" horiz-adv-x="624" d="M82 201q0 111 71.5 195.5t247.5 146.5q-39 45 -68.5 93t-29.5 118q0 39 18.5 77.5t52.5 70.5t81 52.5t104 20.5q76 0 122 -45t46 -109q0 -168 -215 -264q43 -47 79 -102.5t36 -139.5q0 -61 -28 -118.5t-74 -100.5t-107.5 -69.5t-128.5 -26.5q-98 0 -152.5 59.5 t-54.5 141.5zM166 242q0 -84 48 -134.5t140 -50.5q82 0 138.5 55.5t56.5 139.5q0 49 -11.5 87t-28.5 69.5t-40 59.5t-47 52q-145 -53 -200.5 -119.5t-55.5 -158.5zM379 801q0 -76 33.5 -126t79.5 -97q90 45 126.5 94t36.5 108q0 70 -40 108t-105 38q-59 0 -95 -35t-36 -90z " />
<glyph unicode="9" horiz-adv-x="622" d="M-90 -211q2 6 8 10t12 0q20 -27 53 -40t87 -13q145 0 244.5 98.5t164.5 335.5q-41 -61 -94 -99t-129 -38q-82 0 -123 51t-41 127q0 70 25.5 143.5t72 135t109.5 101.5t139 40t124 -51t48 -129q0 -150 -49 -288t-129 -245.5t-183.5 -172t-213.5 -64.5q-53 0 -86 26.5 t-39 71.5zM174 264q0 -78 33 -119t104 -41q41 0 80 27t68.5 70t47 97t17.5 112q0 76 -33.5 125t-111.5 49q-92 0 -148.5 -88.5t-56.5 -231.5z" />
<glyph unicode=":" horiz-adv-x="319" d="M41 43q0 12 8 27.5t22.5 30t32 23.5t33.5 9q10 0 15.5 -9t5.5 -22q0 -16 -9.5 -33.5t-22.5 -33t-28.5 -25.5t-29.5 -10q-27 0 -27 43zM166 436q0 12 9 26.5t22.5 29t31 23.5t35.5 9q20 0 21 -28q0 -16 -9.5 -35t-23.5 -34t-29.5 -25.5t-29.5 -10.5q-27 0 -27 45z" />
<glyph unicode=";" horiz-adv-x="319" d="M-12 -169q-2 7 4 15q45 29 73.5 72t28.5 90q0 43 -20 55q-6 6 1 18.5t19 25t25.5 22.5t21.5 10q10 -4 17.5 -25.5t7.5 -45.5q0 -63 -48 -132t-120 -112q-8 0 -10 7zM168 436q0 12 8 26.5t22.5 29t31 23.5t34.5 9q20 0 21 -28q0 -16 -9.5 -34t-22.5 -34t-28.5 -26.5 t-29.5 -10.5q-27 0 -27 45z" />
<glyph unicode="&#x3c;" horiz-adv-x="616" d="M112.5 289.5q8.5 13.5 39.5 23.5t88 28.5t121 39.5l129 41q65 20 112 35q12 -4 2 -22.5t-39 -28.5q-23 -6 -65.5 -20.5t-95 -31t-105.5 -34t-94 -31.5q59 -29 141 -65t154 -70q10 -8 -5.5 -22.5t-41.5 -10.5q-29 12 -73 32.5t-92 42t-94.5 42t-78.5 34.5q-11 4 -2.5 17.5 z" />
<glyph unicode="=" horiz-adv-x="616" d="M87 219.5q11 18.5 60 24.5q31 0 76 1t95.5 1t104.5 -1t103 -3q16 -2 2 -19.5t-39 -21.5q-92 2 -196.5 1t-202.5 -5q-14 4 -3 22.5zM137 369.5q10 17.5 62 23.5q31 0 75.5 1t95 1t104.5 -1t104 -3q16 -2 1.5 -19.5t-38.5 -19.5q-92 0 -196.5 -1t-203.5 -3q-14 4 -4 21.5z " />
<glyph unicode="&#x3e;" horiz-adv-x="616" d="M61.5 155.5q10.5 18.5 38.5 28.5q20 6 64.5 19.5t96.5 31t105.5 35t94.5 31.5q-59 29 -141 64.5t-154 70.5q-10 8 5 22.5t42 10.5q29 -12 73 -32.5t92 -42t94 -42t79 -35.5q10 -4 2 -17t-39 -24q-31 -10 -88 -28.5t-122 -38.5l-129 -41q-65 -20 -112 -35q-12 4 -1.5 22.5 z" />
<glyph unicode="?" horiz-adv-x="583" d="M113 43q0 12 9 27.5t22.5 30t31 23.5t35.5 9q10 0 15 -9t5 -22q0 -16 -9 -33.5t-23.5 -33t-29.5 -25.5t-30 -10q-26 0 -26 43zM229 298q-2 24 8.5 51.5t36.5 53.5q55 59 130 100.5t143.5 84.5t116 97t47.5 140q0 74 -43 120t-121 46q-76 0 -123 -42t-64 -101 q-8 -10 -20 0t-10 20q14 39 41.5 74t63.5 61.5t79 43t88 16.5q88 0 137 -55.5t49 -128.5q0 -86 -29.5 -144.5t-75.5 -100.5t-101.5 -72t-107.5 -56.5t-95 -56t-64 -70.5q-16 -31 -8 -59.5t51 -32.5q14 0 8 -9.5t-21 -19.5t-35.5 -17.5t-35.5 -2.5q-18 4 -30.5 20t-14.5 40z " />
<glyph unicode="@" horiz-adv-x="1007" d="M102 231q0 100 36 193.5t102.5 165.5t161 113.5t212.5 41.5q68 0 124.5 -24.5t98.5 -66.5t65.5 -98t23.5 -120q0 -74 -26 -139.5t-70 -112.5t-100 -74.5t-118 -27.5q-43 0 -54 59.5t20 139.5q-47 -70 -95.5 -121t-95.5 -62q-29 0 -50.5 30t-21.5 91q0 53 22.5 107.5 t60.5 97.5t87.5 70.5t104.5 27.5t90 -28q10 8 26.5 16t32.5 8q6 0 6 -8q-45 -55 -73.5 -120.5t-41 -122t-4 -95.5t37.5 -39q96 0 157.5 75t61.5 198q0 63 -22.5 118.5t-62.5 96.5t-96.5 65.5t-126.5 24.5q-96 0 -171.5 -33t-130 -91.5t-83 -138t-28.5 -174.5 q0 -78 24.5 -146.5t70.5 -118.5t114.5 -79.5t158.5 -29.5q115 0 190 45t116 118q6 4 12 -2t4 -16q-53 -92 -150.5 -146.5t-224.5 -54.5q-88 0 -157.5 31t-117.5 84t-74 122.5t-26 149.5zM383 246q0 -35 13.5 -58.5t29.5 -23.5q18 0 46 25.5t57.5 66.5t59 90t52.5 98 q-16 45 -82 45q-35 0 -66.5 -17t-56 -50t-39 -77t-14.5 -99z" />
<glyph unicode="A" horiz-adv-x="2039" d="M112 343q19 91 87 171q6 4 14 -1t6 -19q-49 -53 -58 -123q-2 -16 -2 -32q0 -52 23 -101q31 -63 104.5 -106.5t192.5 -43.5q156 0 314.5 74t300.5 207q45 41 93 91t101 107q-141 -10 -254 -24q-10 2 -4 10t19.5 17.5t31 16.5t33.5 9q25 2 81 3t128 3q117 123 261.5 264.5 t334.5 290.5q-137 45 -283.5 75t-281.5 30q-154 0 -255.5 -89.5t-125.5 -271.5q-4 -10 -11.5 -8t-9.5 12q25 201 150 307.5t323 106.5q84 0 170 -11.5t168 -28.5t157 -38.5t136 -42.5q4 -4 4 -11t-10 -20q-68 -74 -121 -169t-91 -207.5t-58.5 -237.5t-20.5 -256 q0 -98 24.5 -152.5t84.5 -54.5q80 0 155 115q6 4 12.5 0t2.5 -12q-20 -35 -48 -69t-58.5 -61.5t-60.5 -45t-54 -17.5q-68 0 -104 68.5t-36 175.5q0 164 37 334q-96 0 -189 -2.5t-184 -6.5q-68 -72 -130 -135t-121 -117q-164 -150 -337 -233.5t-380 -83.5q-104 0 -169 50 t-88 126q-13 41 -13 88q0 38 9 79zM1374 602q98 2 195 2h151q35 150 96.5 292t147.5 259q-180 -145 -323.5 -285.5t-266.5 -267.5z" />
<glyph unicode="B" horiz-adv-x="1306" d="M63 260q-2 3 -2 6q0 5 7 12q10 9 25.5 16t33.5 10t31 -3q39 -41 79 -52q21 -6 46 -6q23 0 49 5q53 10 95 40.5t80 94t76 166t81 258.5q43 152 103 266.5t146 192.5q-18 4 -36 4h-41q-68 0 -134.5 -19.5t-126 -56.5t-106.5 -90t-78 -121q-4 -4 -9 -1t-3 11q25 63 75 123 t119.5 105t156.5 71.5t188 26.5h31q15 0 32 -2q74 51 176 76q10 0 10 -6.5t-10 -10.5q-35 -10 -69.5 -25.5t-65.5 -37.5q82 -12 142.5 -40t99.5 -68t57 -86t18 -95q0 -61 -23.5 -112.5t-62.5 -88.5t-89 -57.5t-101 -20.5q117 -53 170 -147t53 -195q0 -186 -132 -294.5 t-394 -108.5q-211 0 -382.5 69.5t-314.5 190.5zM270 211q104 -78 243.5 -129t293.5 -51q92 0 164.5 25.5t123 69.5t76 103.5t25.5 128.5q0 297 -309 379q-6 6 2 16.5t22.5 18.5t33 12t30.5 2q18 -8 33.5 -11t40.5 -3q37 0 72.5 15.5t63 44t45 66.5t17.5 85q0 98 -70.5 175 t-218.5 104q-68 -70 -121 -172.5t-89 -245.5q-53 -195 -109.5 -316.5t-116 -191.5t-123 -96.5t-129.5 -28.5z" />
<glyph unicode="C" horiz-adv-x="1140" d="M141 502q0 164 59.5 312.5t167 260t257 178t329.5 66.5q74 0 135.5 -7t105.5 -21.5t69.5 -34t25.5 -44.5q0 -16 -7 -39.5t-17.5 -48t-23.5 -49t-25 -41.5q-6 -4 -13.5 1t-3.5 14q27 48 27 82q0 19 -8 34q-29 47 -115 81t-199 34q-147 0 -268 -52t-208 -147.5t-135 -226.5 t-48 -289q0 -115 30.5 -212t90 -167.5t145.5 -110.5t197 -40q147 0 245.5 91t139.5 243q4 10 13 8t9 -12q-8 -43 -24.5 -95.5t-35 -98.5t-35.5 -80t-30 -38q-66 -25 -145.5 -39t-169.5 -14q-125 0 -224.5 38t-168 105.5t-105.5 160t-37 198.5z" />
<glyph unicode="D" horiz-adv-x="1636" d="M61 57q0 27 18.5 56.5t51.5 54.5t80 40t106 15q78 0 145.5 -14t131.5 -35q76 80 141.5 221.5t138.5 368.5q43 131 94.5 233.5t116.5 173.5q-80 41 -170 66t-188 25q-80 0 -146.5 -26t-117.5 -72t-84 -109.5t-45 -141.5q-12 -12 -17 9q8 86 45 158.5t99.5 126t149.5 83 t196 29.5q94 0 180 -22.5t164 -63.5q111 90 262 121q6 0 7 -7.5t-5 -11.5q-66 -16 -120 -48t-101 -77q100 -59 180 -142t136.5 -175t86 -187.5t29.5 -181.5q0 -115 -37 -210t-108.5 -165.5t-176 -109.5t-237.5 -39q-78 0 -145.5 10t-128 25.5t-115.5 34.5l-111 36 q-80 -55 -175 -80.5t-212 -25.5q-66 0 -92.5 15t-26.5 42zM122 95q0 -24 23 -40q27 -18 105 -18q86 0 154.5 17.5t127.5 62.5q-68 20 -139 34.5t-157 14.5q-55 0 -82 -19q-32 -21 -32 -52zM633 160q51 -18 106.5 -37t118 -34t137 -24.5t164.5 -9.5q195 0 292 109.5t97 294.5 q0 96 -28.5 193.5t-83 188.5t-130 168.5t-169.5 135.5q-53 -66 -94.5 -151t-75.5 -189q-76 -236 -155 -392.5t-179 -252.5z" />
<glyph unicode="E" horiz-adv-x="1011" d="M123 324q0 98 36 185t100.5 154.5t153.5 114.5t195 66q-66 35 -102.5 82t-36.5 102q0 57 29.5 109.5t82 92.5t123 64.5t154.5 24.5q49 0 96 -9.5t84 -24.5t58.5 -34.5t21.5 -40.5q0 -16 -7 -37.5t-16.5 -44t-20.5 -42t-17 -27.5q-4 -4 -11.5 -1t-5.5 11q12 23 18.5 50.5 t-9.5 54.5q-23 37 -86.5 73.5t-145.5 36.5q-68 0 -117 -18.5t-82.5 -49t-50 -68.5t-16.5 -77q0 -72 48 -122t165 -85q6 -4 1 -13t-15.5 -19.5t-23.5 -18.5t-21 -10q-20 1 -39 1q-202 0 -318 -101q-127 -110 -127 -330q0 -72 21.5 -133.5t61.5 -106.5t96.5 -70.5t127.5 -25.5 q168 0 274.5 78t153.5 252q6 10 13.5 6t9.5 -17q-25 -115 -58.5 -190.5t-62.5 -87.5q-72 -33 -173 -55.5t-206 -22.5q-86 0 -152.5 26.5t-111.5 71.5t-68.5 104t-23.5 122z" />
<glyph unicode="F" horiz-adv-x="1282" d="M102 272q0 59 32 119t91 101q10 0 13.5 -8.5t-0.5 -14.5q-37 -29 -54.5 -62.5t-17.5 -91.5q0 -53 18.5 -98t57.5 -79t100 -52t147 -18q102 0 184.5 29.5t151 98t127 180t111.5 273.5q-102 -4 -199.5 -12t-195.5 -23q-6 2 2 9.5t23.5 14.5t32.5 14t28 10q84 6 161.5 9 t155.5 5q10 33 20.5 67.5t20.5 71.5q25 88 50.5 154.5t58 113.5t72.5 79t93 52q-111 16 -213 29.5t-194 13.5q-154 0 -258.5 -65.5t-151.5 -206.5q-6 -4 -12 -1t-6 13q45 145 177 233.5t327 88.5q76 0 152.5 -8t156.5 -19.5t165 -24t177 -20.5q5 -4 5 -9q0 -4 -2 -8 q-5 -11 -17.5 -21.5t-28.5 -18.5t-31 -8q-49 4 -99 11t-99 15q-41 -12 -73 -35.5t-58.5 -63.5t-51 -101.5t-49.5 -151.5q-14 -47 -26.5 -92t-28.5 -88q51 2 103 2h108q10 -4 7 -10t-19 -11q-53 0 -105.5 -1t-101.5 -3q-121 -338 -304.5 -495.5t-437.5 -157.5 q-147 0 -221 74.5t-74 197.5z" />
<glyph unicode="G" horiz-adv-x="1169" d="M-76 -70q0 88 40 159t136 116q10 4 13.5 -5.5t-2.5 -17.5q-100 -55 -101 -202q0 -143 86 -233.5t246 -90.5q221 0 386 150.5t267 486.5q-63 -53 -143 -89t-180 -36q-131 0 -196.5 74.5t-65.5 199.5q0 143 63.5 298t175 283t261 211t321.5 83q90 0 142 -39t52 -94 q0 -23 -10 -53.5t-26.5 -62.5t-35 -61.5t-32.5 -52.5q-8 -4 -15.5 1.5t-5.5 13.5q29 45 42.5 79.5t13.5 75.5q0 55 -50.5 91t-131.5 36q-141 0 -263.5 -58t-211.5 -159.5t-139 -242t-50 -302.5q0 -139 50 -210.5t155 -71.5q119 0 207 66.5t122 189.5q2 12 18.5 20.5t34 11.5 t32 1t14.5 -13q-68 -238 -158 -402.5t-198.5 -267t-232.5 -148.5t-257 -46q-94 0 -164 24.5t-116 67.5t-69.5 99.5t-23.5 119.5z" />
<glyph unicode="H" horiz-adv-x="1771" d="M102 188q0 80 48.5 154t139.5 130t223 90t302 34h45q23 0 45 -2q10 29 18.5 58.5t18.5 62.5q33 121 64.5 206t63.5 143t65.5 92t72.5 54q-53 20 -125.5 35t-158.5 15q-96 0 -165 -29t-109 -78t-53 -113q-6 -31 -6 -62q0 -34 7 -71q-2 -10 -8 -12t-12 6q-9 43 -9.5 84 t9.5 79q18 77 71 134t140.5 90t207.5 33q84 0 164 -19.5t144 -46.5q8 -12 -0.5 -22t-38.5 -23q-41 -16 -71 -44.5t-54.5 -78t-47 -121t-49.5 -173.5q-16 -53 -31.5 -104.5t-31.5 -98.5q135 -10 276.5 -32.5t270.5 -53.5q70 211 159 375.5t186 279.5t198.5 175.5t199.5 60.5 q43 0 65.5 -28t22.5 -64q0 -29 -7 -56.5t-19 -48.5q-4 -4 -9.5 -2t-5.5 10q6 18 6 35q0 25 -14 45q-23 33 -82 33q-90 0 -172 -40t-159.5 -136t-151.5 -256t-146 -402q27 -8 52.5 -15t50.5 -13q10 -8 -20 -23q-26 -13 -60 -12h-10q-8 2 -29 10q-6 -25 -13 -50.5t-16 -51.5 q-26 -99 -26 -157q0 -82 53 -83q80 0 156 115q6 6 12 2t4 -14q-23 -35 -50.5 -69t-58 -61.5t-60.5 -45t-54 -17.5q-61 0 -85 62q-10 25 -10 63q0 55 21 135q25 104 55 195q-121 37 -258 65.5t-284 40.5q-57 -150 -129 -256t-155 -174t-176 -99.5t-194 -31.5 q-106 0 -159.5 52t-53.5 136zM164 229q0 -88 54 -134t153 -46q90 0 165.5 25.5t139 86t118 159t103.5 245.5q-31 4 -60 4h-61q-145 0 -260 -27.5t-192.5 -74.5t-118.5 -108.5t-41 -129.5z" />
<glyph unicode="I" horiz-adv-x="1134" d="M102 190q0 63 53.5 127t143.5 105q10 -2 11 -8t-3 -11q-63 -35 -94 -79.5t-31 -92.5q0 -70 63.5 -121t192.5 -51q162 0 288 67t222 224q-104 6 -159.5 80t-55.5 191q0 127 61.5 251.5t167 225t248 162t301.5 61.5q5 -3 5 -8q0 -4 -1.5 -8t-3.5 -7t-6 -8q-8 -10 -18 -20 t-19 -15q-41 -12 -73.5 -32.5t-63.5 -63.5t-59.5 -117.5t-59.5 -193.5q-74 -281 -200 -475q29 4 54.5 14t39.5 19q6 2 8 -3.5t-2 -11.5q-43 -29 -113 -39q-119 -172 -276.5 -262t-351.5 -90q-123 0 -196 55t-73 135zM760 629q0 -123 54 -187.5t147 -70.5q47 82 88 189.5 t75 242.5q23 86 47.5 154.5t55 122t68.5 93t85 68.5q-141 -16 -255.5 -78.5t-195.5 -148.5t-125 -187.5t-44 -197.5z" />
<glyph unicode="J" horiz-adv-x="1298" d="M0 -147q0 78 43 161.5t118 157.5t178 129t226 78q10 0 10 -8.5t-10 -12.5q-109 -20 -199 -66t-155.5 -107.5t-102 -133t-36.5 -145.5q0 -102 62.5 -165t211.5 -63q121 0 232.5 37t212 117t189.5 207t167 307q-109 4 -175.5 77t-66.5 195q0 127 61.5 252t167 225.5 t248 162t301.5 61.5q4 -3 5 -7q0 -2 -1 -5q-3 -8 -10.5 -18.5t-17.5 -21t-19 -14.5q-43 -12 -78.5 -36.5t-66.5 -71.5t-58.5 -120t-54.5 -179q-35 -135 -75.5 -252t-87.5 -221q25 4 47 13t34 17q14 0 9 -14q-37 -27 -99 -37q-88 -188 -194.5 -325.5t-225 -227.5t-248.5 -134 t-266 -44q-141 0 -208.5 67t-67.5 165zM932 627q0 -119 59.5 -186.5t163.5 -73.5q76 186 141 434q45 178 108.5 284.5t147.5 155.5q-141 -18 -255.5 -79.5t-195.5 -148.5t-125 -188.5t-44 -197.5z" />
<glyph unicode="K" horiz-adv-x="1916" d="M102 221q0 41 12.5 83t34 79t53 65.5t68.5 47.5q12 0 15.5 -6.5t-0.5 -14.5q-53 -29 -82 -81t-29 -115q0 -98 68.5 -161t193.5 -63t222.5 32t171 101.5t124 181t78.5 271.5q27 147 54.5 245.5t58.5 163t65.5 99.5t75.5 57q-53 20 -124.5 33.5t-155.5 13.5 q-127 0 -223.5 -44t-157 -119.5t-80.5 -179.5q-9 -47 -10 -97q0 -60 14 -125q0 -10 -8.5 -14t-14.5 6q-15 68 -15 133q0 56 11 110q25 116 95.5 203.5t187.5 140t274 52.5q86 0 166 -18.5t144 -47.5q8 -12 -1.5 -21t-39.5 -24q-43 -18 -75 -51t-56.5 -90t-46 -144 t-42.5 -212q-31 -176 -98 -309.5t-164.5 -222.5t-220.5 -134t-262 -45q-145 0 -213 63.5t-68 157.5zM1198 698q-2 6 -2 13q0 14 10 28q92 119 191.5 225.5t198 184.5t190.5 124t170 46q35 0 59.5 -26.5t24.5 -69.5q0 -29 -5 -52.5t-20 -56.5q-6 -6 -12 -4t-8 10q3 15 3 29 q0 31 -17 56q-24 36 -91 36q-57 0 -133 -36t-160 -100.5t-171 -154.5t-166 -196q45 -160 90 -288t98 -217t120.5 -136t155.5 -47q45 0 83 23.5t61 60.5q6 6 12 -0.5t4 -16.5q-31 -57 -85 -95t-134 -38q-94 0 -166 56.5t-127 152.5t-97 223t-77 266z" />
<glyph unicode="L" horiz-adv-x="1345" d="M61 100q0 27 15.5 54.5t45.5 49t70.5 36t92.5 14.5q80 0 154.5 -22.5t152.5 -51.5q92 119 162 381q45 168 105.5 308.5t135 239.5t164.5 154.5t193 55.5q66 0 99.5 -43t33.5 -107q0 -41 -14.5 -86t-32.5 -82q-8 -6 -15.5 -3t-5.5 14q14 37 14.5 75.5t-15 70.5t-49.5 52.5 t-85 20.5q-74 0 -135.5 -27.5t-113.5 -97.5t-99 -189.5t-94 -304.5q-39 -147 -90.5 -257.5t-118.5 -186.5q88 -35 185 -61.5t218 -26.5q96 0 158.5 33.5t110.5 128.5q8 4 14 -1t2 -16q-49 -111 -131 -168t-219 -57q-121 0 -215.5 35t-182.5 76q-137 -111 -352 -111 q-78 0 -118 31.5t-40 68.5zM121 143q0 -41 43 -70.5t121 -29.5t139 18.5t115 63.5q-72 35 -147 59.5t-165 24.5q-57 0 -81.5 -18.5t-24.5 -47.5z" />
<glyph unicode="M" horiz-adv-x="2496" d="M104 350q0 98 46.5 180t136.5 129q8 4 11 -4t-1 -16q-63 -41 -89 -94t-26 -139q0 -68 22.5 -128.5t66.5 -105.5t108.5 -71.5t150.5 -26.5q180 0 345 83t321 228t305.5 340t298.5 420q-143 49 -300 83t-300 34q-154 0 -256 -89.5t-125 -271.5q-4 -10 -11 -8t-9 12 q23 201 147.5 307.5t325.5 106.5q84 0 170 -11.5t168 -28.5t156.5 -38.5t136.5 -42.5q4 2 9 2t9 2q8 0 9 -8t-3 -14q-29 -18 -47 -45t-41 -70q-102 -205 -162.5 -429t-101.5 -454q96 170 221 340t264.5 323.5t286.5 281.5t287 216q10 0 14 -10q2 -4 2 -8q0 -6 -4 -10 q-98 -86 -177 -206t-136.5 -253t-88 -271.5t-30.5 -258.5q0 -111 26.5 -173.5t73.5 -62.5q78 0 154 115q6 6 13 1t5 -13q-23 -35 -50.5 -69t-58 -61.5t-60 -45t-54.5 -17.5q-53 0 -94 62.5t-41 191.5q0 106 21.5 229t64.5 247t107.5 240.5t148.5 213.5q-127 -94 -259 -226.5 t-254 -283t-226.5 -309t-174.5 -306.5q-8 -14 -30.5 -36.5t-34.5 -22.5q-14 0 -14 14q39 317 111.5 564t172.5 456q-164 -246 -321.5 -438.5t-315 -324.5t-321.5 -201.5t-340 -69.5q-84 0 -149.5 26.5t-112.5 73.5t-72 110.5t-25 139.5z" />
<glyph unicode="N" horiz-adv-x="2027" d="M115 411q27 103 114 183q10 2 15.5 -5t1.5 -18q-59 -59 -76 -142q-5 -28 -5 -54q0 -54 21 -105q33 -76 117 -129t227 -53q141 0 264.5 68.5t220.5 198.5t165.5 319.5t103.5 431.5q-86 72 -178 108.5t-193 36.5q-98 0 -162.5 -45t-93.5 -100q-6 -4 -13 -2t-9 12 q18 39 50 76t73 64.5t94 45t115 17.5q86 0 169 -32t160 -91v4q2 12 10.5 28.5t17.5 30t17.5 18.5t10.5 -5q-2 -29 -5.5 -56.5t-7.5 -54.5q88 -78 168 -182.5t147.5 -227t122 -259t95.5 -275.5q14 123 47 253t80 252t105.5 230.5t123 190.5t131 129t131.5 47q57 0 91 -44 t34 -153q-2 -12 -11 -13t-13 11q-4 37 -26.5 63.5t-55.5 38.5q-23 8 -49 7q-12 0 -24 -1q-40 -5 -79 -34q-100 -72 -184 -203t-147.5 -289.5t-100.5 -332.5t-43 -332q0 -23 -4 -30t-14 -7q-8 0 -13.5 9t-9.5 22q-92 350 -221 617t-295 421q-45 -254 -129 -452.5t-196.5 -336 t-245.5 -209t-275 -71.5q-145 0 -235 62.5t-123 153.5q-18 50 -18 104q0 45 12 91z" />
<glyph unicode="O" horiz-adv-x="1241" d="M143 475q0 156 59.5 308.5t164 271.5t245 192.5t301.5 73.5q96 0 174 -37t132.5 -102.5t84 -154.5t29.5 -196q0 -168 -64.5 -318.5t-169 -264t-239.5 -181t-276 -67.5q-109 0 -191 39t-137 104.5t-84 151.5t-29 180zM229 543q0 -106 30 -194.5t86 -152t139 -98.5t188 -35 q106 0 209.5 51.5t185.5 144.5t133 223t51 288q0 225 -107.5 353t-295.5 128q-137 0 -251 -55t-196 -151.5t-127 -225.5t-45 -276z" />
<glyph unicode="P" horiz-adv-x="1603" d="M102 299q0 39 11.5 79t31 75.5t48 65.5t63.5 46q20 4 12 -14q-59 -33 -88.5 -88t-29.5 -119q0 -59 21.5 -110.5t62 -90.5t100 -60.5t137.5 -21.5q94 0 173 25t145.5 85t124 161.5t110.5 255.5q-23 33 -39 71.5t-27 85.5q2 8 8.5 11.5t10.5 -2.5q18 -80 57 -133 q20 63 43 141q47 174 103.5 300t134.5 206q-12 2 -26 2h-27q-217 0 -368 -104.5t-210 -309.5q-6 -6 -12 -1t-6 22q70 205 231.5 323.5t427.5 118.5h24q11 0 21 -2q70 53 162 76q10 0 11 -6.5t-9 -10.5q-35 -10 -63.5 -25.5t-55.5 -37.5q90 -12 160 -50t117 -93.5t71.5 -122 t24.5 -138.5q0 -94 -34 -175t-96.5 -141.5t-153.5 -95t-208 -34.5q-137 0 -219 67q-123 -276 -292 -403t-369 -127q-78 0 -136.5 25.5t-98.5 66.5t-59.5 95.5t-19.5 111.5zM1092 563q82 -59 225 -59q86 0 156.5 28.5t121 79t77 118t26.5 144.5q0 72 -21.5 136.5t-63.5 115 t-104.5 86t-142.5 50.5q-55 -68 -98 -168.5t-78 -233.5q-43 -164 -98 -297z" />
<glyph unicode="Q" horiz-adv-x="1153" d="M123 62q0 10 20 22q39 23 76 22q25 0 61.5 -16t65.5 -16q158 0 304.5 55t258 156.5t179 242t67.5 310.5q0 94 -22.5 175t-67.5 139t-109.5 91t-150.5 33q-115 0 -210 -48t-165 -134t-107.5 -206t-37.5 -265q0 -111 48 -191t144 -96q22 -4 39 -4q41 0 62 20q8 2 12 -4 t2 -14q-18 -23 -57 -38t-86 -15q-55 0 -98.5 24.5t-74 66.5t-47 98t-16.5 122q0 139 48 270t131 232.5t196.5 163t245.5 61.5q100 0 178 -32t131 -90t80.5 -138t27.5 -178q0 -160 -68.5 -303.5t-183 -255t-265 -185.5t-316.5 -94q53 -18 116.5 -48t132 -63.5t143.5 -68.5 t148 -64q78 -31 142.5 -45t142.5 -14q104 0 173 27.5t118 80.5q6 4 14 1q5 -2 6 -7q0 -3 -2 -6q-55 -78 -142 -128t-210 -50q-43 0 -79 4t-71.5 13.5t-72.5 22.5t-80 34q-102 45 -208.5 100t-206 103.5t-189.5 79.5q-85 30 -150 30h-8q-10 7 -12 17z" />
<glyph unicode="R" horiz-adv-x="1748" d="M100 233q0 78 42 155t112 112q18 4 14 -17q-61 -31 -91 -87t-30 -117q0 -106 63.5 -162t182.5 -56q106 0 193.5 32t159 111t133 214t118.5 342q49 176 106.5 302t135.5 208q-385 -8 -586 -293q-6 -4 -13 0t-3 14q98 143 262 230.5t395 95.5q35 27 74 46t86 30 q10 0 10 -7.5t-10 -11.5q-59 -16 -108 -55q72 0 131 -27.5t102 -72.5t66.5 -101.5t23.5 -118.5q0 -82 -37 -151.5t-97 -118.5t-139 -75q-68 -22 -140 -22q-11 0 -23 1q33 -176 71.5 -286.5t86 -173t101.5 -85t116 -22.5q43 0 74.5 21.5t64.5 66.5q4 6 13 5t7 -12 q-45 -68 -102 -107.5t-123 -39.5q-90 0 -153.5 51t-109.5 138t-77 202t-57 240q0 12 8 18q10 4 22.5 9.5t34.5 15.5q6 2 17.5 -1t30 -6t44 -3t60.5 8q106 25 165.5 98.5t59.5 183.5q0 131 -77.5 217t-215.5 97q-57 -66 -101 -169.5t-81 -240.5q-59 -225 -140 -388 t-179.5 -267.5t-213 -153.5t-241.5 -49q-61 0 -105.5 18.5t-74 51t-44 74.5t-14.5 89z" />
<glyph unicode="S" horiz-adv-x="983" d="M102 248q0 70 36 128t104 93q8 4 11 -5t-1 -15q-74 -41 -74 -148q0 -53 22.5 -99t64.5 -80t102.5 -54.5t138.5 -20.5q186 0 275 80t89 197q0 78 -22.5 141t-56 119.5t-72.5 107.5t-73 102.5t-56.5 106.5t-22.5 121q0 61 24.5 115.5t65.5 94.5t97.5 63.5t122.5 23.5 q92 0 145 -47t53 -107q0 -35 -22.5 -75.5t-44.5 -71.5q-8 -4 -13.5 1t-5.5 15q27 33 27 90q0 59 -52.5 101.5t-138.5 42.5q-88 0 -142 -50.5t-54 -125.5q0 -61 23.5 -115.5t58 -109t74.5 -108.5t75 -112.5t58.5 -123t23.5 -140.5q0 -84 -37 -154.5t-100.5 -122t-149.5 -79 t-182 -27.5q-180 0 -275.5 69.5t-95.5 178.5z" />
<glyph unicode="T" horiz-adv-x="1181" d="M102 231q0 123 121 205q8 0 10.5 -8t-2.5 -14q-29 -23 -42 -48.5t-13 -72.5q0 -104 73 -164.5t216 -60.5q98 0 180 26.5t150.5 91t127 173t111.5 272.5q74 229 176.5 369.5t231.5 175.5q-137 35 -284.5 55t-293.5 20q-115 0 -204 -37.5t-148 -101t-86 -148.5 q-18 -58 -18 -120q0 -28 4 -58q-12 -18 -23 -2q-4 31 -4 62q0 69 19 135q28 96 95.5 172t176 121t256.5 45q219 0 398 -36t327 -81q6 -6 6 -12q0 -8 -8 -19q-29 -42 -45 -41h-4q-25 8 -49.5 15.5t-51.5 13.5q-115 -10 -205 -119.5t-161 -345.5q-106 -346 -296 -519 t-458 -173q-74 0 -127 19.5t-88 51t-51.5 73.5t-16.5 85z" />
<glyph unicode="U" horiz-adv-x="1540" d="M156 890q25 122 92 217t177 153.5t255 58.5q86 0 166 -18.5t143 -47.5q12 -10 -6 -24q-109 -86 -191.5 -193.5t-141 -227.5t-88.5 -246t-30 -249q0 -135 47.5 -188t125.5 -53q106 0 208.5 71.5t210 220t227 375t259.5 535.5q8 16 34.5 30.5t55.5 14.5q33 0 33 -14 q-37 -43 -82 -122t-89 -178.5t-86 -212t-75 -220t-52.5 -203t-19.5 -162.5q0 -117 76 -117q78 0 151 115q6 6 14.5 1t6.5 -13q-23 -35 -50.5 -69t-58 -61.5t-60.5 -45t-54 -17.5q-57 0 -83 47t-26 113q0 102 31 243.5t96 305.5q-186 -350 -368.5 -529.5t-362.5 -179.5 q-98 0 -148.5 66.5t-50.5 189.5q0 125 32 252t91.5 249t144.5 234.5t193 208.5q-53 20 -133 36.5t-164 16.5q-125 0 -215 -54t-143 -141t-71 -196q-8 -47 -7 -94q0 -61 12 -121q-2 -8 -10 -12t-12 4q-15 69 -16 137q1 58 12 114z" />
<glyph unicode="V" horiz-adv-x="1353" d="M143 797q59 256 168 389t262 133q94 0 162 -47t113 -129t65.5 -193.5t20.5 -241.5t-21.5 -272.5t-60.5 -285.5q143 119 258 223t192.5 205.5t119.5 206t42 223.5q0 102 -47 161.5t-119 63.5h-2q-56 0 -96 -82q-6 -4 -12 0t-6 14q10 29 29.5 56.5t41 49t44 35t38.5 13.5 q43 0 80 -18.5t64.5 -51t43 -77t15.5 -95.5q0 -158 -67.5 -292t-178 -260t-252 -254t-288.5 -273q-14 0 -17.5 7t-0.5 19.5t9 26.5l13 29q45 109 73.5 239t35.5 260q3 46 3 90q0 83 -9 161q-13 122 -53 216.5t-105.5 150.5t-161.5 56q-139 0 -227.5 -117.5t-147.5 -342.5 q-4 -8 -12.5 -6t-8.5 10z" />
<glyph unicode="W" horiz-adv-x="1683" d="M147 838q-1 12 0 24q0 85 25 163q29 89 83 156.5t132 107.5t176 40q84 0 141.5 -43t90 -119.5t43.5 -180.5q5 -52 5 -108t-5 -116q-10 -121 -40 -254t-75 -266q55 127 130 267t160 273t174 248t175 193q6 2 11 -4.5t7 -16.5t1 -20.5t-7 -18.5q-29 -18 -48 -35.5 t-42 -46.5q-35 -45 -48 -114.5t-14 -151.5v-16q0 -75 8 -158q9 -92 17 -183t13 -177q1 -29 1 -56q0 -54 -6 -102q78 117 178.5 224.5t190.5 220t151.5 237.5t61.5 278q0 66 -18.5 109t-53.5 47q-25 2 -43 -23.5t-32 -56.5q-20 -8 -21 15q23 57 59.5 101t71.5 44q49 0 79 -49 t30 -119q0 -123 -33 -224.5t-87 -190.5t-124 -171t-142.5 -162.5t-143 -165.5t-128.5 -182q-16 -25 -29.5 -40t-29.5 -15q-10 0 -13 6t-3 16.5t3 23.5t3 26q3 50 3 102q0 73 -6 151q-11 134 -21.5 260t-10.5 229.5t33 162.5q-76 -109 -137.5 -203t-117 -191.5t-107.5 -205 t-109 -238.5q-31 -72 -40.5 -105.5t-27.5 -33.5q-16 0 -20.5 15.5t10.5 56.5q104 274 138 493q20 129 20 236q0 74 -10 137q-24 154 -98.5 235.5t-184.5 81.5q-76 0 -136.5 -30.5t-102.5 -86t-64.5 -131t-22.5 -163.5q-4 -12 -13.5 -14t-9.5 8z" />
<glyph unicode="X" horiz-adv-x="1665" d="M102 119q0 16 8.5 46t24 65.5t37 74.5t45.5 76q6 6 16.5 1t6.5 -17q-33 -47 -44 -91q-7 -28 -8 -55q0 -15 2 -31q6 -47 44 -73.5t110 -26.5q90 0 172 42t159 118t146.5 181.5t134.5 232.5q-27 129 -42 233t-29.5 177t-34 112t-53.5 39q-41 0 -81 -48.5t-79 -121.5 q-10 -10 -19.5 -5t-5.5 17q23 49 53.5 95t62.5 82t63.5 57.5t54.5 21.5q45 0 69.5 -51t39 -133t25.5 -185.5t32 -206.5q57 125 132 231.5t161 182.5t178 119t184 43q29 0 47.5 -27.5t18.5 -85.5q0 -47 -16.5 -105.5t-39.5 -96.5q-8 -4 -16 0t-6 14q20 49 20 94 q0 53 -22.5 81t-79.5 28q-72 0 -146.5 -40t-147.5 -111t-138.5 -167t-118.5 -209q61 -283 175 -445.5t267 -162.5q53 0 97.5 34t76.5 114q6 8 13.5 2.5t7.5 -19.5q-53 -123 -108.5 -170t-127.5 -47q-90 0 -162.5 50t-130 135t-98.5 197t-67 232v2q-160 -307 -335 -461.5 t-341 -154.5q-86 0 -136.5 35t-50.5 82z" />
<glyph unicode="Y" horiz-adv-x="1355" d="M14 94q0 78 28 151.5t82 132t135 99.5t190 53q10 -2 9 -10t-12 -18q-94 -12 -160.5 -44t-109.5 -79t-62.5 -106.5t-19.5 -127.5q0 -156 90 -247t269 -91q131 0 249.5 45.5t233.5 152t230.5 281.5t242.5 433q-57 -94 -128 -175t-144.5 -141.5t-146 -94.5t-134.5 -34 q-92 0 -130 54q-27 39 -27 99q0 23 3 48q16 113 50 225.5t67 217.5q33 102 47 167q13 57 13 95q0 22 -4.5 38.5t-12.5 24.5q-14 14 -41 14q-25 0 -51.5 -12t-51 -30.5t-46 -41t-33.5 -45.5q-8 -8 -15.5 -0.5t-5.5 17.5q14 23 41 53.5t63 57t75 45t77 18.5q37 0 58.5 -18.5 t28.5 -61.5q2 -14 2 -31q0 -34 -9 -81q-12 -69 -45 -169q-41 -125 -73.5 -226t-49.5 -204q-4 -29 -4 -54q0 -49 17 -79q25 -45 104 -45q178 0 370.5 235.5t424.5 700.5q39 33 69 33q18 0 18 -18q0 -5 -1 -11q-211 -449 -389 -747.5t-344 -478t-330 -253t-346 -73.5 q-86 0 -153.5 28.5t-114 78t-70 113.5t-23.5 136z" />
<glyph unicode="Z" horiz-adv-x="1280" d="M104 29q174 164 324 305t291 275t284.5 269.5t303.5 286.5q-106 29 -221 49.5t-238 20.5q-139 0 -208 -76t-89 -203q-6 -8 -15.5 -5t-9.5 14q14 78 40 143.5t69 112.5t105.5 72.5t150.5 25.5q102 0 188 -20.5t191 -53.5q46 -15 70 -14h6q25 2 53 26q14 10 49 11 q18 0 14 -17q-129 -119 -275.5 -255t-298 -278.5t-302 -285.5t-289.5 -274q12 1 23 1q38 0 77 -11q51 -13 114.5 -29.5t147.5 -31.5t199 -15q143 0 233.5 62.5t153.5 207.5q8 4 18.5 -1t6.5 -15q-41 -86 -86 -150.5t-101.5 -107.5t-129 -63.5t-165.5 -20.5q-74 0 -132 7 t-109 19.5t-97.5 27.5t-97.5 30q-37 11 -67 10q-22 0 -40 -5q-44 -13 -102 -73q-12 -4 -28 7q-12 8 -12 16q-1 3 1 6z" />
<glyph unicode="[" horiz-adv-x="651" d="M162 -172q45 178 92 361.5t92 365.5t87 358.5t77 339.5q4 14 9 18.5t24 4.5h84h71q35 0 74 -1t90 -3q20 -4 10 -18.5t-34 -16.5q-49 4 -115 4h-125q-100 -381 -187 -739.5t-143 -663.5q35 0 59.5 -1t48 -1t49.5 1t62 1q14 -6 10.5 -19.5t-38.5 -15.5h-72q-27 0 -53.5 1 t-59 2t-88.5 1q-24 1 -24 21z" />
<glyph unicode="\" horiz-adv-x="434" d="M61 1272q4 16 18.5 25.5t20.5 -7.5q20 -133 54 -312t71 -366.5t73 -362.5t62 -298q2 -23 -14 -33t-27 6q-27 135 -60.5 305t-68 350.5t-68.5 359.5t-61 333z" />
<glyph unicode="]" horiz-adv-x="694" d="M35 -175q10 15 37 17q47 -4 112.5 -5t124.5 1q100 381 187.5 738.5t142.5 662.5q-35 2 -60.5 3t-48 1t-48 -1t-62.5 -1q-14 4 -10 17.5t39 17.5q45 0 71.5 -1t53 -1t59.5 -1t88 -3q25 0 24 -19q-47 -178 -93 -361t-91 -365.5t-87 -359.5t-77 -341q-2 -12 -8 -16.5 t-24 -4.5h-84h-72q-35 0 -74 1t-90 1q-20 5 -10 20z" />
<glyph unicode="^" horiz-adv-x="557" d="M104 385q47 63 118 153.5t149 200.5q18 25 32 -4q27 -82 54.5 -162.5t56.5 -152.5q2 -10 -2 -22.5t-13.5 -21.5t-19.5 -13.5t-16 2.5q-25 70 -51.5 148.5t-49.5 143.5q-29 -35 -59.5 -74.5t-63 -79.5t-62.5 -76t-54 -65q-8 -4 -15.5 3.5t-3.5 19.5z" />
<glyph unicode="_" horiz-adv-x="729" d="M-28 -100.5q5 8.5 18.5 16.5t32 15.5t34.5 9.5q35 2 110 4t162 3t171 1h137q10 -4 8 -16.5t-18 -14.5q-53 0 -132 -1t-168 -4t-181.5 -9t-168.5 -15q-10 2 -5 10.5z" />
<glyph unicode="`" horiz-adv-x="317" d="M47 743q-12 4 0 17q18 16 47 24.5t35 3.5q29 -29 69 -61.5t76 -60.5q4 -4 -1 -10.5t-15 -8.5q-51 16 -110.5 42.5t-100.5 53.5z" />
<glyph unicode="a" horiz-adv-x="602" d="M63 147q0 68 28 134.5t75 121t108.5 87t128.5 32.5q37 0 64 -8t49 -25q12 10 33.5 19.5t40.5 9.5q7 0 7 -5q0 -2 -1 -5q-47 -57 -81 -127t-52.5 -135.5t-23.5 -115.5q-2 -15 -1 -27q0 -29 8 -42q10 -14 37 -0.5t70 68.5q4 4 10 0t4 -12q-43 -59 -85 -88t-70 -29 q-18 0 -29.5 18.5t-14.5 50.5q-1 12 -2 25q0 22 4 46q5 40 17 83q-55 -86 -116.5 -148.5t-118.5 -74.5q-37 0 -63 35.5t-26 111.5zM143 174q0 -45 15.5 -74.5t38.5 -29.5t58.5 31.5t74.5 83t76.5 116t66.5 129.5q-8 27 -37.5 43t-68.5 16q-45 0 -85 -23.5t-71 -65.5 t-49.5 -99t-18.5 -127z" />
<glyph unicode="b" horiz-adv-x="505" d="M72 94q0 45 14 119t39 163t59.5 187.5t75.5 194.5q172 406 345 598t360 192q66 0 95 -51q19 -33 19 -73q0 -22 -6 -46q-12 -12 -20 2q-4 41 -36 71t-97 30q-92 0 -187.5 -55.5t-188.5 -184.5t-182.5 -341t-171.5 -525q18 27 42 52.5t52.5 47t59.5 34.5t62 13 q47 0 66.5 -39t19.5 -90q0 -66 -33 -136.5t-83 -127.5t-109.5 -94t-110.5 -37q-37 0 -60.5 21.5t-23.5 74.5zM150 141q-1 -9 -1 -17q0 -31 12 -46q15 -18 46 -19q39 0 78 26t69.5 67t50 92t19.5 102q0 59 -18.5 84t-45.5 25q-31 0 -65.5 -19.5t-65 -58.5t-52 -98.5 t-27.5 -137.5z" />
<glyph unicode="c" horiz-adv-x="415" d="M61 121q0 72 24 143.5t61.5 129t87 93t100.5 35.5q43 0 67.5 -20.5t24.5 -48.5q0 -10 -6 -24.5t-15.5 -29t-20.5 -26t-19 -15.5q-10 0 -11 11q8 21 9 39q0 17 -8 32q-15 31 -62 31q-33 0 -61.5 -23.5t-49 -65.5t-33 -98.5t-12.5 -121.5q0 -100 70 -101q80 0 160 97 q8 4 14 -1t2 -16q-47 -59 -104.5 -101t-112.5 -42q-45 0 -75 33t-30 90z" />
<glyph unicode="d" horiz-adv-x="583" d="M61 125q0 78 27 150.5t73 128t106.5 89t129.5 33.5q23 0 40.5 -6t31.5 -16q37 111 89 231.5t113.5 236t130 220t141.5 183.5t146.5 126t143.5 47q53 0 67 -41q5 -14 5 -29q0 -32 -19 -73q-16 -12 -20 6q4 29 -16.5 45.5t-57.5 16.5q-74 0 -149.5 -51.5t-147.5 -142.5 t-139.5 -214t-125 -266.5t-103.5 -300t-74 -314.5q-5 -31 -6 -57q0 -13 2 -26q4 -36 28 -35q23 0 45.5 23.5t40.5 51.5q4 4 11.5 0t5.5 -12q-10 -18 -29 -40.5t-40.5 -42t-44 -33t-40.5 -13.5q-35 0 -48 30q-10 23 -10 55q0 10 1 21q2 35 8 66t14 66q-18 -43 -49 -83 t-63.5 -73t-64.5 -54.5t-54 -27.5q-35 0 -67 29.5t-32 95.5zM139 156q0 -43 17.5 -63.5t40.5 -20.5t54.5 25.5t63 66.5t61.5 95t50 112q6 20 12 38.5t11 36.5q-8 25 -31 36.5t-51 11.5q-43 0 -84 -26t-73 -71t-51.5 -106t-19.5 -135z" />
<glyph unicode="e" horiz-adv-x="421" d="M61 137q0 61 22.5 130t59.5 126.5t85 94t102 36.5q39 0 65.5 -27.5t26.5 -62.5q0 -29 -22.5 -53.5t-61.5 -44t-89 -35.5t-106 -31q-2 -23 -3 -45t-1 -49q0 -51 22.5 -86t63.5 -35t77 20.5t65 55.5q8 4 12 -2t0 -14q-35 -47 -87 -81t-110 -34q-53 0 -87 34.5t-34 102.5z M150 301q98 14 144 42t46 63q0 29 -14.5 47t-38.5 18q-47 0 -84 -41t-53 -129z" />
<glyph unicode="f" horiz-adv-x="319" d="M-596 -395q0 18 8 39.5t21 38.5q6 6 11 2t5 -11q-8 -16 -6 -37.5t17.5 -41t45 -33t76.5 -13.5q49 0 97.5 12.5t96.5 46.5t96 95t99.5 160.5t106.5 241t115 335.5q4 10 6 19.5t6 19.5q-35 -4 -70 -9t-69 -13q-10 2 -5 10t18 16.5t31.5 15.5t34.5 9t34 3t36 3 q74 221 159 400.5t179 307.5t194.5 197.5t202.5 69.5q39 0 65.5 -16.5t40 -43t13.5 -58.5t-14 -62q-4 -6 -10.5 -4t-10.5 8q-4 41 -37.5 72.5t-105.5 31.5q-78 0 -148.5 -41t-143.5 -143.5t-147.5 -276.5t-160.5 -440q47 2 99 2h108q10 -4 9 -11t-20 -11l-102 -4 q-51 -2 -104 -7q-6 -23 -15 -41q-84 -268 -172 -449t-180 -291t-187.5 -156t-193.5 -46q-70 0 -99.5 31t-29.5 72z" />
<glyph unicode="g" horiz-adv-x="430" d="M-233 -258q0 61 44 107.5t126 68.5q10 0 13 -7t-3 -13q-43 -16 -70 -49t-27 -89q0 -104 72 -167.5t189 -63.5q98 0 145 50t47 130q0 47 -14.5 84t-42.5 84q-34 58 -35 112q0 7 1 14q5 60 42 126q4 8 9 15.5t9 17.5q-23 -25 -52.5 -43.5t-49.5 -18.5q-100 0 -100 131 q0 43 16 94.5t46 95.5t70 72.5t89 28.5q72 0 110.5 5t61.5 26q3 2 5 2l7 -3q4 -3 4 -7q0 -3 -2 -6q-16 -25 -41 -44q-22 -18 -54 -18h-7q18 -31 18 -80q0 -47 -14 -86t-32.5 -73.5t-38 -65.5t-30.5 -63q-10 -30 -11 -61q0 -37 24 -81q18 -35 33.5 -62.5t26.5 -53t16.5 -52 t5.5 -57.5q0 -49 -20.5 -93t-59.5 -78t-94.5 -53.5t-124.5 -19.5q-72 0 -129.5 20.5t-97.5 54.5t-60 78t-20 91zM129 270q0 -59 19.5 -85.5t58.5 -26.5q23 0 49.5 14t42.5 39q12 29 20.5 59.5t8.5 61.5q0 59 -19.5 93t-62.5 34q-49 0 -83 -49.5t-34 -139.5z" />
<glyph unicode="h" horiz-adv-x="598" d="M53 18q92 352 207 635t241 481.5t257 306t254 107.5q45 0 74.5 -17.5t40.5 -43.5q8 -18 8 -40q0 -10 -1 -20q-5 -33 -30 -63q-4 -6 -10.5 -4t-6.5 10q2 8 2 16q0 32 -26 62q-33 37 -105 37q-96 0 -196 -76t-200.5 -232.5t-198 -394t-187.5 -563.5q33 63 76 119.5t88 97.5 t91 64.5t89 23.5q25 0 37 -12t12 -29q0 -27 -18 -59q-43 -76 -70.5 -156t-27.5 -145q0 -29 7 -47.5t23 -18.5q20 0 44 21.5t42 48.5q6 4 12.5 -1t4.5 -13q-12 -18 -30.5 -38t-40 -37.5t-44 -27.5t-41.5 -10q-51 0 -51 86q0 74 24.5 161t59.5 154q12 20 12 35q0 18 -22 19 q-37 0 -80 -29t-88 -84t-86 -134t-74 -177q-4 -14 -21.5 -22.5t-33.5 -8.5q-18 0 -18 11q0 3 1 7z" />
<glyph unicode="i" horiz-adv-x="305" d="M70 68q0 39 13 93t33.5 109.5t46 106.5t50.5 88q-23 -16 -56.5 -42t-50.5 -42q-6 -4 -11 3t-1 13q29 29 78 66t98 61q16 0 17 -18q-27 -47 -52.5 -102.5t-45 -109.5t-32 -104.5t-12.5 -83.5q0 -43 29 -43q23 0 44.5 19.5t49.5 52.5q4 4 10.5 -2t2.5 -14q-37 -45 -79 -82 t-79 -37q-53 0 -53 68zM270 647q0 12 6 21q53 74 150 157q2 1 3 1l9 -4q4 -3 4 -6q0 -2 -2 -3q-43 -39 -82 -93t-67 -108q-3 -3 -7 -3q-3 0 -4 2q-5 5 -7.5 14.5t-2.5 21.5z" />
<glyph unicode="j" horiz-adv-x="278" d="M-604 -301q4 4 10 5t8 -7q-6 -31 -1 -57.5t23.5 -48t50.5 -34t81 -12.5q82 0 160.5 40t155.5 141.5t148.5 277.5t139.5 449q-23 -16 -44.5 -33t-39.5 -37q-8 -2 -11 4t-1 12q29 29 77 65t95 58q20 0 16 -18q-72 -285 -159 -477.5t-185 -310t-203.5 -168t-214.5 -50.5 q-72 0 -100 56q-16 31 -16 72q0 33 10 73zM253 624q-3 9 -3 16q0 13 8 24q29 41 64.5 78.5t83.5 78.5q3 2 5 2l7 -3q4 -3 3 -6q0 -2 -1 -3q-43 -39 -81 -93t-67 -108q-4 -3 -7 -3q-7 1 -12 17z" />
<glyph unicode="k" horiz-adv-x="530" d="M53 18q63 342 173 624t241 483.5t270.5 312t261.5 110.5q45 0 75 -17.5t41 -43.5q8 -18 8 -40q0 -10 -2 -20q-5 -33 -29 -65q-14 -10 -19 6q3 11 3 21q0 30 -22 59q-30 39 -102 39q-90 0 -191.5 -67.5t-203.5 -209t-197.5 -359.5t-171.5 -519q45 88 104.5 140t141.5 52 q35 0 56.5 -24.5t21.5 -55.5q0 -66 -62.5 -114.5t-154.5 -61.5q23 -109 57.5 -167t85.5 -58q23 0 42.5 10t41.5 39q6 4 10.5 -1t2.5 -11q-29 -37 -62 -58.5t-78 -21.5q-66 0 -104.5 69.5t-63.5 202.5q-2 16 11 21q20 -4 39 -5l34 4q37 7 66 23.5t46 43t17 59.5q0 51 -51 51 q-70 0 -131 -68.5t-92 -201.5q-8 -35 -17.5 -77t-15.5 -71q-4 -16 -8 -24.5t-19 -14.5q-25 -12 -43 -12q-12 0 -11 10q-1 3 1 8z" />
<glyph unicode="l" horiz-adv-x="274" d="M61 80q0 57 20.5 148t57.5 204t89.5 237t113.5 244.5t130 231t141.5 194.5t146.5 133.5t145 49.5q53 0 69 -49q5 -17 5 -36q0 -33 -18 -69q-4 -4 -10.5 0t-8.5 10q4 25 -17.5 41.5t-66.5 16.5q-88 0 -174 -74t-166 -191.5t-148.5 -263t-118.5 -290t-79 -272.5t-29 -208 q0 -61 35 -61q25 0 48.5 20.5t54.5 61.5q6 4 11 -1t3 -14q-41 -63 -90 -103t-84 -40q-27 0 -43.5 21.5t-16.5 58.5z" />
<glyph unicode="m" horiz-adv-x="845" d="M53 18q16 45 34.5 99.5t37 110t34 108.5t25.5 100q10 37 -10 37q-16 0 -38.5 -22.5t-45.5 -53.5q-6 -4 -12 1t-2 12q31 43 68.5 78.5t76.5 35.5q27 0 34 -20.5t1 -48.5q-10 -45 -19.5 -83t-23.5 -77q53 102 117.5 165.5t128.5 63.5q25 0 40 -18.5t15 -50.5q0 -43 -8 -86 t-25 -88q61 117 132 180t141 63q23 0 37 -16t14 -43q0 -37 -15.5 -81t-34 -91t-33.5 -93t-15 -87q0 -51 30 -52q33 0 90 68q4 4 10 -2q3 -3 2 -7q0 -3 -1 -7q-12 -16 -31 -36t-38 -37t-41.5 -28.5t-43.5 -11.5q-47 0 -47 78q0 49 14.5 99t31.5 96t31.5 87t14.5 70 q0 43 -31 43t-67.5 -30.5t-76.5 -88t-80 -140.5t-77 -187q-4 -12 -21.5 -19.5t-33.5 -7.5q-25 0 -18 18q12 37 33.5 92.5t41 114t33.5 109.5t14 80q0 57 -34 57q-53 0 -135 -114.5t-156 -329.5q-4 -12 -18.5 -19.5t-30.5 -7.5q-10 0 -17 4q-4 2 -3 7q-1 3 1 7z" />
<glyph unicode="n" horiz-adv-x="595" d="M45 18q35 88 73 199t66 219q8 39 -14 39q-20 0 -40.5 -20.5t-43.5 -53.5q-4 -4 -9 2.5t-3 12.5q23 35 61.5 71.5t83.5 36.5q39 0 39 -40q0 -13 -4 -29q-8 -45 -22.5 -95.5t-30.5 -99.5q29 55 67.5 104.5t80.5 84t84 55t79 20.5q25 0 38 -12t13 -29q0 -27 -12 -53 q-43 -78 -72.5 -163t-29.5 -156q0 -51 32 -52q43 0 97 72q6 4 12 0t4 -12q-35 -47 -77 -83t-79 -36q-63 0 -63 82q0 70 24.5 155t67.5 171q8 14 8 28q0 23 -20 23q-76 0 -167 -104.5t-169 -327.5q-4 -12 -22.5 -19.5t-35.5 -7.5q-18 0 -17 11q0 3 1 7z" />
<glyph unicode="o" horiz-adv-x="460" d="M61 150q0 57 22.5 122.5t60.5 122t86.5 93t101.5 36.5q55 0 81.5 -36.5t26.5 -96.5q0 -70 -26.5 -139.5t-67.5 -125.5t-89 -91t-89 -35q-49 0 -78 39t-29 111zM127 193q0 -129 82 -130q31 0 60.5 21.5t52 57.5t36 83t13.5 99q0 61 -20.5 97t-67.5 36q-31 0 -59.5 -21.5 t-50 -57.5t-34 -84t-12.5 -101z" />
<glyph unicode="p" horiz-adv-x="534" d="M-70 -469q0 104 33 241.5t86 284.5q-4 6 -7 13.5t-5 15.5t31 18q27 74 57.5 148t60.5 143q36 80 36 103q0 24 -25 10q-14 -8 -33 -22.5t-35 -32.5q-4 -4 -9 3t-3 11q12 14 32.5 32.5t42 36t43 30t37.5 12.5t21.5 -17.5t-6.5 -46.5q-12 -35 -31.5 -81t-42.5 -91 q57 86 112.5 133t98.5 47q41 0 65.5 -36.5t24.5 -94.5q0 -80 -27.5 -150.5t-76 -125t-114 -86t-142.5 -31.5q-35 0 -58 14q-35 -102 -63.5 -218t-28.5 -216q0 -40 37 -40q5 0 10 1q31 6 62 25q6 2 7 -7.5t-3 -15.5q-25 -14 -68 -28.5t-82 -14.5q-16 0 -26.5 7.5t-10.5 25.5z M123 88q10 -23 29.5 -36t52.5 -13q51 0 95 22.5t76 62.5t49 94t17 120q0 49 -17 81t-54 32q-47 0 -112.5 -84t-121.5 -238q-4 -10 -7 -20.5t-7 -20.5z" />
<glyph unicode="q" horiz-adv-x="550" d="M51 125q0 76 31 147.5t83 127t121.5 89t149.5 33.5q55 0 96 -37q23 18 41.5 20.5t16.5 -7.5q-68 -96 -123 -211t-98 -234t-71 -232.5t-38 -207.5q-4 -35 4 -52.5t33 -17.5q27 0 61 13q6 2 5 -8.5t-5 -14.5q-37 -14 -81 -23.5t-68 -9.5q-38 0 -38 56q0 10 1 22 q8 55 27.5 137t47 171t59.5 174t67 147q-27 -35 -58.5 -70t-64.5 -63.5t-63.5 -48t-55.5 -25.5q-37 0 -58.5 29.5t-21.5 95.5zM127 141q0 -72 49 -71q20 0 53 24.5t68 59t64.5 71.5t44.5 64q27 51 42 78.5t35 62.5q-2 23 -22.5 41t-54.5 18q-59 0 -109.5 -27.5t-88.5 -74.5 t-59.5 -110.5t-21.5 -135.5z" />
<glyph unicode="r" horiz-adv-x="399" d="M63 422q31 39 69 70.5t71 31.5q45 0 45 -57q0 -31 -6 -72t-17 -82q41 98 90.5 154.5t106.5 56.5q23 0 41 -12t18 -35q0 -16 -12 -41.5t-25 -38.5q-12 -8 -12 6q0 35 -47 35q-72 0 -129 -107.5t-109 -297.5q-4 -20 -27.5 -26.5t-39.5 -6.5q-23 0 -10 23q18 43 34.5 93 t32 101t25.5 100.5t16 90.5q2 14 2 24q0 37 -22 37q-16 0 -38 -18.5t-40 -42.5q-8 -4 -14 1q-4 3 -4 7q-1 3 1 6z" />
<glyph unicode="s" horiz-adv-x="385" d="M-10 70q0 18 22.5 55t50.5 59q6 4 11.5 -2t1.5 -12q-16 -16 -24.5 -37.5t-4.5 -38.5q6 -35 31.5 -52t60.5 -17q53 0 83 28.5t30 73.5q0 39 -18.5 72.5t-40 65.5t-39 63.5t-17.5 68.5q0 53 40 90t108 37q41 0 68.5 -13t27.5 -30q0 -23 -9.5 -51.5t-19.5 -46.5 q-4 -4 -11 -1t-5 9q6 14 8 32.5t-2 33.5q-10 41 -57 41q-35 0 -56.5 -20.5t-21.5 -61.5q0 -33 17.5 -62.5t39 -59.5t38.5 -63.5t17 -74.5q0 -66 -46 -111t-138 -45q-63 0 -104 22.5t-41 47.5z" />
<glyph unicode="t" horiz-adv-x="350" d="M85 469q5 8 18.5 16.5t32 15.5t34.5 7q10 2 17 2h16q29 63 57.5 121.5t56.5 107.5q12 12 27.5 21.5t30.5 12.5q11 2 18 2h4q8 -1 6 -7q-35 -53 -68.5 -118.5t-64.5 -135.5q37 0 74 1t78 1q9 -3 8 -10q0 -6 -4.5 -8.5t-13.5 -3.5q-33 -2 -73 -4.5t-81 -6.5 q-41 -102 -67.5 -196t-26.5 -156q0 -70 53 -70t117 95q6 4 12 -1t4 -16q-18 -29 -41.5 -54.5t-48 -43.5t-47.5 -29.5t-37 -11.5q-45 0 -66.5 27.5t-21.5 66.5q0 68 28.5 170.5t71.5 210.5q-27 -4 -51 -8t-47 -8q-7 1 -7 5q0 2 2 5z" />
<glyph unicode="u" horiz-adv-x="612" d="M66 92q0 33 9 77t24.5 93t38 98.5t50.5 92.5q-23 -16 -47 -36t-41 -36q-6 -4 -10 3t-2 13q14 14 36.5 33t48.5 37t53.5 35.5t52.5 29.5q2 1 3 1q6 0 10 -5q5 -6 3 -14q-66 -84 -105.5 -185.5t-39.5 -193.5q0 -59 34 -59q27 0 67 35.5t83 94t87 132.5t81 149 q6 14 23.5 25.5t37.5 11.5q27 0 19 -16q-29 -53 -51.5 -99.5t-37 -91.5t-21.5 -92t-7 -102q0 -66 37 -66q16 0 36.5 17.5t41.5 46.5q6 4 12 0q4 -2 4 -7q0 -3 -2 -8q-29 -43 -67 -74.5t-72 -31.5q-27 0 -45.5 26.5t-18.5 71.5q0 49 9.5 105.5t29.5 113.5q-39 -76 -82 -134 t-83 -99t-74.5 -62.5t-57.5 -21.5q-27 0 -47 25.5t-20 66.5z" />
<glyph unicode="v" horiz-adv-x="555" d="M66 422q-3 3 -3.5 6.5t3.5 7.5q47 47 82.5 67.5t66.5 20.5q25 0 34 -18.5t9 -46.5q0 -39 -8 -92.5t-21.5 -111.5t-30 -114.5t-30.5 -101.5q57 14 114.5 53t102.5 90t72.5 111.5t27.5 122.5q0 53 -34 53q-29 0 -52 -33q-6 -4 -10 2t-2 13q16 27 46 50t59 23q23 0 38 -20.5 t15 -61.5q0 -59 -25.5 -118.5t-71 -114.5t-106.5 -102.5t-133 -77.5q-29 -12 -57.5 -20.5t-51.5 -8.5q-25 0 -12 27q35 86 59.5 187t32.5 181q1 13 1 23q0 49 -23 49q-29 0 -76 -47q-10 -4 -16 2z" />
<glyph unicode="w" horiz-adv-x="755" d="M59 466q12 13 28.5 25.5t35 21.5t35.5 9q39 0 57 -50t18 -169q0 -53 -5 -96t-11 -76q41 70 78 122t70 95q12 16 21 38t20 60q2 8 14 17.5t24.5 15.5t21.5 8t9 -4q-31 -68 -48 -156.5t-17 -164.5q0 -98 69 -99q35 0 72 23t66.5 60.5t49 88t19.5 105.5q0 80 -32 102 q-14 10 -28 10q-19 0 -38 -16q-16 -4 -13 15q6 10 16.5 22t24 23.5t25.5 18.5t21 7q29 0 48 -33.5t19 -99.5q0 -78 -29.5 -148.5t-74.5 -124t-98.5 -85t-98.5 -31.5q-37 0 -58.5 28.5t-21.5 86.5q0 25 2 53.5t6 58t9.5 56t11.5 47.5q-43 -53 -88 -127t-90 -150 q-16 -33 -27.5 -43t-28.5 -10q-16 0 -12 23q14 49 23.5 121.5t9.5 141t-9.5 120t-33.5 61.5q-12 4 -31.5 -6t-30.5 -33q-4 -4 -11 1q-6 4 -5 10q-1 9 16 27z" />
<glyph unicode="x" horiz-adv-x="538" d="M-14 41q0 25 8 55.5t26 65.5q4 4 9.5 0t5.5 -12q-16 -37 -6 -60.5t32 -23.5q35 0 75 35.5t87 119.5q-14 51 -18 96t-7 77t-6.5 50.5t-13.5 18.5q-14 0 -30.5 -23.5t-26.5 -50.5q-4 -4 -11.5 -2t-5.5 8q4 18 17.5 40t31 41.5t37 32.5t35.5 13q14 0 21.5 -18.5t10.5 -48 t5 -67.5t8 -79q49 92 111.5 152.5t120.5 60.5q29 0 44 -15t15 -38q0 -18 -11 -46t-24 -50q-6 -4 -11 -1t-5 9q20 35 12 59.5t-41 24.5q-53 0 -101 -47t-101 -146q25 -98 62.5 -157.5t76.5 -59.5q27 0 50.5 22.5t43.5 53.5q6 4 12 0t4 -12q-12 -23 -30.5 -44.5t-39 -38 t-41 -27.5t-36.5 -11q-37 0 -78 51t-70 139q-53 -92 -107 -141t-108 -49q-32 0 -32 43z" />
<glyph unicode="y" horiz-adv-x="573" d="M-362 -311q0 37 19 77.5t60 71.5q6 4 11.5 -4t1.5 -12q-33 -39 -33 -88q0 -86 49 -139.5t150 -53.5q72 0 132 22.5t114.5 80t104.5 154t103 241.5q23 68 44.5 125t43.5 119q-78 -123 -163 -201t-150 -84q-27 0 -39 24.5t-12 67.5q0 37 8 81t23.5 91t39 95.5t52.5 93.5 q-23 -16 -47.5 -36t-40.5 -36q-6 -4 -11.5 3t-1.5 13q29 29 78 66t96 61q20 0 17 -18q-31 -41 -56.5 -91.5t-44 -100.5t-29 -99t-10.5 -88q0 -57 39 -57q33 0 79 44t92 106.5t84 133t57 123.5q2 6 10 13.5t19.5 15.5t22.5 13t17 5q15 0 15 -9q0 -34 -16 -79.5t-40.5 -99 t-31.5 -73.5q-43 -120 -93 -249q-55 -143 -117.5 -240.5t-131 -157.5t-142 -87t-151.5 -27q-109 0 -165 54.5t-56 134.5z" />
<glyph unicode="z" horiz-adv-x="487" d="M-16 8q-3 5 -3 10.5t3 10.5q45 45 99 98t109.5 108.5t107.5 106.5t95 94q-45 10 -100 16.5t-94 6.5q-59 0 -82 -66q-4 -6 -12.5 -2t-8.5 10q16 45 51 83t89 38q47 0 90 -9t71 -17q23 -4 39.5 1t32.5 19q6 6 18 6q25 0 21 -16q-111 -106 -216.5 -209.5t-195.5 -196.5 q47 -16 97.5 -27.5t101.5 -11.5q53 0 87 30t56 89q6 4 14.5 0t4.5 -12q-29 -78 -75 -124t-110 -46q-43 0 -86 9t-90 26q-25 10 -46 2t-52 -37q-10 0 -16 10z" />
<glyph unicode="{" horiz-adv-x="595" d="M180 33q12 55 28.5 98t33.5 82l32 78q16 39 29 88q8 31 2 56.5t-19.5 45t-35 31.5t-43.5 16q-12 10 -4 24.5t43 25.5q66 16 97.5 53t47.5 108q20 82 21.5 145.5t15.5 131.5q29 137 109.5 197.5t238.5 60.5q16 -4 14 -16.5t-22 -12.5q-117 0 -176.5 -49t-83.5 -160 q-10 -43 -14.5 -76.5t-7.5 -66.5t-7 -66.5t-14 -76.5q-16 -61 -58 -112.5t-106 -80.5q51 -14 71.5 -60t8.5 -104q-12 -53 -28.5 -95t-33 -83t-32 -82t-25.5 -90q-20 -104 16.5 -156.5t141.5 -52.5q10 -4 8 -15.5t-20 -15.5q-147 0 -199 62t-29 168z" />
<glyph unicode="|" horiz-adv-x="331" d="M164 -498v1819h45v-1819h-45z" />
<glyph unicode="}" horiz-adv-x="583" d="M0 -180.5q2 12.5 23 14.5q117 0 176 48t84 161q10 43 14 77t7 66.5t7 65.5t15 76q16 61 59 112.5t104 79.5q-51 14 -71.5 61.5t-7.5 104.5q12 51 28.5 94t32.5 83t31.5 81t25.5 90q20 104 -16.5 156.5t-140.5 52.5q-10 4 -8 15.5t20 15.5q147 0 198.5 -61.5t28.5 -165.5 q-12 -57 -28.5 -100.5t-33 -81.5t-32.5 -76.5t-29 -88.5q-8 -31 -1.5 -56.5t19.5 -45.5t34.5 -32.5t44.5 -16.5q12 -10 4 -24.5t-43 -22.5q-66 -16 -96.5 -54t-49.5 -110q-20 -82 -21 -145.5t-16 -129.5q-29 -139 -109.5 -199.5t-238.5 -60.5q-16 4 -14 16.5z" />
<glyph unicode="~" horiz-adv-x="784" d="M106 285q39 51 90.5 92t110.5 41q37 0 66.5 -12.5t58.5 -25.5t60.5 -25.5t74.5 -12.5q78 0 152 84q10 4 18 -2t4 -16q-47 -57 -103 -92t-114 -35q-45 0 -77.5 12t-60.5 25.5t-54.5 25.5t-59.5 12q-47 0 -80.5 -24.5t-68.5 -65.5q-10 -6 -15.5 1.5t-1.5 17.5z" />
<glyph unicode="&#xa2;" horiz-adv-x="397" d="M8 -135l53 133q25 61 50 119q-35 10 -55.5 40.5t-20.5 78.5q0 76 25.5 147.5t68.5 127.5t96.5 91t108.5 35q14 33 28.5 67.5t30.5 69.5q10 12 22.5 10t10.5 -18q-16 -35 -30.5 -66.5t-28.5 -64.5q31 -10 51 -31.5t20 -46.5q0 -10 -7 -24.5t-16 -29t-19.5 -25.5t-18.5 -15 q-12 0 -12 10q12 29 4.5 57.5t-31.5 42.5q-47 -104 -89 -201.5t-83 -195.5h14q41 0 71 15.5t62 54.5q6 4 12.5 -2t2.5 -15q-43 -57 -92.5 -85.5t-94.5 -28.5q-25 -59 -49 -120t-49 -126q-12 -20 -24.5 -20t-10.5 16zM111 276q0 -63 28 -88q41 96 82 190.5t88 205.5 q-4 2 -14 2q-37 0 -71 -22.5t-59.5 -63.5t-39.5 -98.5t-14 -125.5z" />
<glyph unicode="&#xa3;" horiz-adv-x="704" d="M12 31q0 35 47 69.5t113 34.5q18 0 34.5 -2t33.5 -6q14 29 28.5 72t30.5 102q-29 -4 -58.5 -8t-62.5 -8q-10 2 -5 10t18.5 16t32 14.5t34.5 8.5q14 2 25.5 2t23.5 2q18 59 47 114.5t68 97.5t84 66.5t94 24.5q53 0 71.5 -52t-3.5 -116q-6 -6 -13.5 -4t-9.5 8 q-4 35 -29.5 63.5t-76.5 28.5q-31 0 -53.5 -9t-42 -34.5t-36 -70.5t-34.5 -115q39 0 84 -1t104 -1q10 -4 8 -12.5t-18 -10.5q-100 0 -186 -6q-33 -125 -86 -196q47 -18 99 -39t132 -21q39 0 67.5 12.5t49.5 30.5q8 4 14 0t2 -12q-45 -45 -86 -70.5t-100 -25.5 q-78 0 -129.5 23.5t-98.5 45.5q-35 -31 -75.5 -44t-83.5 -13q-58 0 -58 31zM63 68q0 -33 52 -33q25 0 46 7t40 28q-23 10 -45.5 16t-51.5 6q-41 1 -41 -24z" />
<glyph unicode="&#xa5;" horiz-adv-x="632" d="M53 209q6 8 19.5 16t32 14.5t34.5 8.5q23 4 43.5 4t38.5 2q14 33 17 57q-33 -4 -68 -9t-76 -13q-10 2 -5 10t19.5 16.5t33 15.5t34.5 9t32.5 3t33.5 1q8 106 -20.5 176t-82.5 70q-27 0 -45 -21q-8 -4 -13 1t-1 14q16 16 47 36.5t55 20.5q25 0 47.5 -17.5t40 -53t24.5 -92 t-1 -132.5q86 160 164 227.5t149 67.5q33 0 49.5 -25.5t18.5 -60.5q-2 -10 -7 -12t-10 2q-23 41 -90 41q-33 0 -66.5 -19.5t-65.5 -52.5t-60.5 -77t-52.5 -91q29 0 62.5 -1t76.5 -1q10 -4 8 -11t-18 -11q-41 0 -76 -1.5t-68 -3.5q-6 -16 -13 -31.5t-13 -31.5h63q35 0 80 -2 q10 -4 8 -11.5t-18 -11.5h-76q-35 0 -68 -4q-14 -43 -22 -82t-8 -67q0 -45 32 -45q29 0 45 8q8 0 10.5 -7t-1.5 -12q-14 -6 -54.5 -13t-64.5 -7q-33 0 -33 55q0 47 11.5 88t25.5 78q-35 -4 -73 -9t-81 -13q-10 2 -4 10z" />
<glyph unicode="&#xa9;" horiz-adv-x="677" d="M123 453q0 55 22.5 108t63.5 95t96 67t123 25q86 0 142.5 -54.5t56.5 -142.5q0 -61 -23.5 -116.5t-64.5 -97.5t-97.5 -65.5t-124.5 -23.5q-98 0 -146 56.5t-48 148.5zM158 465q0 -82 43 -135.5t147 -53.5q47 0 91 20.5t77 54.5t52.5 79t19.5 96q0 88 -47 139.5t-133 51.5 q-55 0 -101.5 -20.5t-79 -56.5t-51 -81t-18.5 -94zM236 459q0 33 13 65.5t36.5 59t56.5 42t74 15.5t64.5 -11.5t23.5 -23.5t-8.5 -36.5t-18.5 -37.5q-4 -4 -9 0.5t-5 8.5q10 25 2 39q-18 29 -66 28q-63 0 -90.5 -35.5t-27.5 -95.5q0 -102 90 -102q33 0 53 13t31 34q4 4 9 -1 t5 -9q-12 -27 -45 -46.5t-74 -19.5q-57 0 -85.5 33t-28.5 80z" />
<glyph unicode="&#xad;" d="M80 283q-14 4 0 21.5t41 23.5q27 2 68.5 6t89 7t93.5 5t81 2q8 -2 6 -10t-9.5 -17.5t-19.5 -17.5t-27 -10q-37 0 -82 -1t-89 -3t-84.5 -3t-67.5 -3z" />
<glyph unicode="&#xae;" horiz-adv-x="677" d="M123 453q0 55 22.5 108t63.5 95t96 67t123 25q86 0 142.5 -54.5t56.5 -142.5q0 -61 -23.5 -116.5t-64.5 -97.5t-97.5 -65.5t-122.5 -23.5q-100 0 -148 56.5t-48 148.5zM160 465q0 -82 43 -135.5t147 -53.5q47 0 90 20.5t76 54.5t52.5 79t19.5 96q0 88 -47 139.5 t-133 51.5q-55 0 -101.5 -20.5t-79 -56.5t-50 -81t-17.5 -94zM231 354q16 61 40 125t53 113q6 10 20 18q-23 -4 -44 -8t-44 -14q-8 0 -2 10t16 14q23 10 54.5 19.5t62.5 9.5q45 0 67.5 -20.5t22.5 -51.5q0 -35 -26.5 -59.5t-69.5 -32.5q10 -53 22.5 -75.5t36.5 -22.5 q10 0 25 10q14 4 10 -14q-10 -10 -25.5 -19.5t-33.5 -9.5q-35 0 -48.5 37t-25.5 96q0 8 4 10q4 4 10 7.5t11 7.5q4 2 9 0t9 -2q16 -4 33 8q23 14 22 47q0 29 -21.5 41t-56.5 12q-10 -20 -22 -49t-24.5 -61.5t-22.5 -67.5t-17 -65q-4 -8 -16 -14.5t-22 -6.5q-7 0 -7 8z" />
<glyph unicode="&#xb4;" horiz-adv-x="321" d="M41 650q0 7 8 16q27 16 70 47.5t71 66.5q10 6 38 -2t46 -16q14 -8 2 -21q-18 -12 -46.5 -26.5t-59.5 -27.5t-62.5 -24.5t-58.5 -19.5q-8 0 -8 7z" />
<glyph unicode="&#x2000;" horiz-adv-x="774" />
<glyph unicode="&#x2001;" horiz-adv-x="1548" />
<glyph unicode="&#x2002;" horiz-adv-x="774" />
<glyph unicode="&#x2003;" horiz-adv-x="1548" />
<glyph unicode="&#x2004;" horiz-adv-x="516" />
<glyph unicode="&#x2005;" horiz-adv-x="387" />
<glyph unicode="&#x2006;" horiz-adv-x="258" />
<glyph unicode="&#x2007;" horiz-adv-x="258" />
<glyph unicode="&#x2008;" horiz-adv-x="192" />
<glyph unicode="&#x2009;" horiz-adv-x="309" />
<glyph unicode="&#x200a;" horiz-adv-x="86" />
<glyph unicode="&#x2010;" d="M80 283q-14 4 0 21.5t41 23.5q27 2 68.5 6t89 7t93.5 5t81 2q8 -2 6 -10t-9.5 -17.5t-19.5 -17.5t-27 -10q-37 0 -82 -1t-89 -3t-84.5 -3t-67.5 -3z" />
<glyph unicode="&#x2011;" d="M80 283q-14 4 0 21.5t41 23.5q27 2 68.5 6t89 7t93.5 5t81 2q8 -2 6 -10t-9.5 -17.5t-19.5 -17.5t-27 -10q-37 0 -82 -1t-89 -3t-84.5 -3t-67.5 -3z" />
<glyph unicode="&#x2012;" d="M80 283q-14 4 0 21.5t41 23.5q27 2 68.5 6t89 7t93.5 5t81 2q8 -2 6 -10t-9.5 -17.5t-19.5 -17.5t-27 -10q-37 0 -82 -1t-89 -3t-84.5 -3t-67.5 -3z" />
<glyph unicode="&#x2013;" horiz-adv-x="1024" d="M43 314.5q2 13.5 25 15.5q33 2 104.5 4t160.5 3t187 1h189h161h107q8 -4 5 -10t-10 -13.5t-19.5 -12.5t-22.5 -5q-53 2 -127 3t-159 2t-174 2t-170 0t-147.5 -2t-105.5 -3q-6 2 -4 15.5z" />
<glyph unicode="&#x2014;" horiz-adv-x="2048" d="M43 314.5q2 13.5 25 15.5q25 2 115.5 4t223 3t294.5 1h331h331h296h224h118q8 -4 5 -10t-10 -13.5t-19.5 -12.5t-22.5 -5q-39 2 -135.5 3t-228.5 2t-289.5 1t-319.5 1t-316.5 0t-282.5 -1t-217 -1t-118 -3q-6 2 -4 15.5z" />
<glyph unicode="&#x2018;" horiz-adv-x="178" d="M113 604q0 63 48 132t120 112q8 0 10 -7t-4 -16q-45 -29 -74 -71.5t-29 -89.5q0 -43 21 -56q6 -6 -1 -18t-19.5 -24.5t-26 -23t-21.5 -10.5q-10 4 -17 25.5t-7 46.5z" />
<glyph unicode="&#x2019;" horiz-adv-x="178" d="M102 539.5q-2 7.5 4 15.5q45 29 74 72t29 90q0 43 -21 55q-6 6 1.5 18.5t19.5 24.5t25.5 22.5t21.5 10.5q10 -4 17.5 -25.5t7.5 -46.5q0 -63 -48.5 -132t-119.5 -112q-9 0 -11 7.5z" />
<glyph unicode="&#x201c;" horiz-adv-x="342" d="M113 604q0 63 48 132t120 112q8 0 10 -7t-4 -16q-45 -29 -74 -71.5t-29 -89.5q0 -43 21 -56q6 -6 -1 -18t-19.5 -24.5t-26 -23t-21.5 -10.5q-10 4 -17 25.5t-7 46.5zM276 604q0 63 48.5 132t119.5 112q8 0 10.5 -7t-3.5 -16q-45 -29 -74 -71.5t-29 -89.5q0 -43 21 -56 q6 -6 -1.5 -18t-19.5 -24.5t-25.5 -23t-21.5 -10.5q-10 4 -17.5 25.5t-7.5 46.5z" />
<glyph unicode="&#x201d;" horiz-adv-x="342" d="M102 539.5q-2 7.5 4 15.5q45 29 74 72t29 90q0 43 -21 55q-6 6 1.5 18.5t19.5 24.5t25.5 22.5t21.5 10.5q10 -4 17.5 -25.5t7.5 -46.5q0 -63 -48.5 -132t-119.5 -112q-9 0 -11 7.5zM266 539.5q-2 7.5 4 15.5q45 29 74 72t29 90q0 43 -21 55q-6 6 1 18.5t19.5 24.5 t26 22.5t21.5 10.5q10 -4 17 -25.5t7 -46.5q0 -63 -48 -132t-120 -112q-8 0 -10 7.5z" />
<glyph unicode="&#x2022;" horiz-adv-x="423" d="M113 285q0 53 40 96t105 43q41 0 67.5 -25.5t26.5 -66.5q0 -59 -41 -102.5t-106 -43.5q-47 0 -69.5 27t-22.5 72z" />
<glyph unicode="&#x2026;" horiz-adv-x="770" d="M61 45q0 12 8.5 26.5t22.5 29t30.5 23.5t35.5 9q20 0 20 -31q0 -16 -9 -33.5t-22.5 -33t-30 -25.5t-30.5 -10q-25 0 -25 45zM332 45q0 12 8 26.5t22.5 29t31 23.5t34.5 9q20 0 21 -31q0 -16 -9.5 -33.5t-23 -33t-29.5 -25.5t-31 -10q-24 0 -24 45zM602 45q0 12 8 26.5 t22.5 29t31 23.5t34.5 9q20 0 21 -31q0 -16 -9.5 -33.5t-22.5 -33t-29.5 -25.5t-30.5 -10q-25 0 -25 45z" />
<glyph unicode="&#x202f;" horiz-adv-x="309" />
<glyph unicode="&#x205f;" horiz-adv-x="387" />
<glyph unicode="&#x20ac;" horiz-adv-x="737" d="M4 260q6 8 19.5 16.5t32 15.5t34.5 9h21q2 27 12 55q-18 -4 -37.5 -6t-40.5 -6q-10 2 -5 10t19.5 16.5t33 14.5t34.5 8q6 0 10 2q20 51 55 96.5t80 79t100.5 52t119.5 18.5q66 0 105.5 -24.5t39.5 -51.5q0 -18 -11.5 -55t-21.5 -64q-4 -4 -12 0.5t-6 14.5q18 45 -4 84 q-16 27 -51 42t-78 15q-94 0 -161 -52t-95 -153q53 2 110.5 2t134.5 -2q10 -4 8.5 -11t-20.5 -11q-66 0 -124 -2t-116 -8q-4 -14 -5 -28.5t-3 -31.5q47 2 100.5 1t123.5 -1q10 -4 8 -12t-19 -10q-59 0 -111.5 -3.5t-103.5 -7.5v-8q0 -117 42 -176t114 -59q51 0 89 29.5 t62 97.5q6 6 14.5 5t8.5 -11q-16 -49 -33.5 -88t-36.5 -46q-20 -8 -55 -12t-70 -4q-100 0 -155.5 64.5t-55.5 168.5q0 20 2 31q-25 -4 -48 -7t-50 -7q-10 2 -4 10z" />
<glyph unicode="&#x2122;" horiz-adv-x="796" d="M103.5 615.5q5.5 7.5 21.5 9.5q25 4 60.5 7t74.5 5t78 3t70 1q8 -2 -0.5 -13.5t-18.5 -15.5h-100q-18 -35 -32.5 -71.5t-31.5 -87.5q-16 -45 -16 -82q-2 -8 -18.5 -15.5t-32.5 -7.5q-12 0 -8 12q16 63 40.5 124t53.5 110q4 4 10 8l12 8q-41 0 -81 -1t-74 -3 q-13 2 -7.5 9.5zM323.5 339.5q-4.5 20.5 4.5 31.5q47 63 112.5 137t126.5 129q4 4 9.5 0t5.5 -8q-16 -53 -25.5 -103.5t-15.5 -101.5q37 55 85 113.5t101 103.5q6 2 10 -2t0 -8q-20 -41 -32.5 -100.5t-12.5 -112.5q0 -23 5 -30t18 -7q8 0 20 8q4 4 7 -1t1 -9 q-8 -10 -25.5 -20.5t-33.5 -10.5t-24.5 10.5t-8.5 38.5q0 49 7.5 92t19.5 82q-43 -49 -78 -95t-72 -101q-8 -10 -15 -18.5t-15 -8.5t-9 8q6 61 17.5 120t25.5 102q-49 -47 -99 -111t-95 -143q-10 -5 -14.5 15.5z" />
<glyph unicode="&#xe000;" horiz-adv-x="520" d="M0 520h520v-520h-520v520z" />
</font>
</defs>
</svg>
